<?xml version="1.0" encoding="UTF-8" standalone="no"?>
<!-- Generator: Adobe Illustrator 18.0.0, SVG Export Plug-In . SVG Version: 6.00 Build 0)  -->

<svg
   xmlns:dc="http://purl.org/dc/elements/1.1/"
   xmlns:cc="http://creativecommons.org/ns#"
   xmlns:rdf="http://www.w3.org/1999/02/22-rdf-syntax-ns#"
   xmlns:svg="http://www.w3.org/2000/svg"
   xmlns="http://www.w3.org/2000/svg"
   xmlns:sodipodi="http://sodipodi.sourceforge.net/DTD/sodipodi-0.dtd"
   xmlns:inkscape="http://www.inkscape.org/namespaces/inkscape"
   version="1.1"
   id="Layer_1"
   x="0px"
   y="0px"
   viewBox="0 0 684.65002 1098.4219"
   enable-background="new 0 0 960 560"
   xml:space="preserve"
   inkscape:version="0.91 r13725"
   sodipodi:docname="ponyBodyFill.svg"
   width="684.65002"
   height="1098.4219"><metadata
     id="metadata21"><rdf:RDF><cc:Work
         rdf:about=""><dc:format>image/svg+xml</dc:format><dc:type
           rdf:resource="http://purl.org/dc/dcmitype/StillImage" /><dc:title></dc:title></cc:Work></rdf:RDF></metadata><defs
     id="defs19" /><sodipodi:namedview
     pagecolor="#ffffff"
     bordercolor="#666666"
     borderopacity="1"
     objecttolerance="10"
     gridtolerance="10"
     guidetolerance="10"
     inkscape:pageopacity="0"
     inkscape:pageshadow="2"
     inkscape:window-width="1920"
     inkscape:window-height="1018"
     id="namedview17"
     showgrid="false"
     fit-margin-top="0"
     fit-margin-left="0"
     fit-margin-right="0"
     fit-margin-bottom="0"
     inkscape:zoom="0.60625"
     inkscape:cx="161.65731"
     inkscape:cy="572.26623"
     inkscape:window-x="-8"
     inkscape:window-y="-8"
     inkscape:window-maximized="1"
     inkscape:current-layer="Layer_1" /><path
     d="m 47,317.02194 c 0.1,-0.1 -2.1,0.4 -2.6,0.4 -0.6,0 -4.4,0.2 -4.6,-0.2 -17.1,-36.2 -6.9,-120 -6.7,-120.7 0.1,-0.4 0.2,-0.7 0.2,-1.1 9.7,-44.8 30.9,-75.8 36.4,-82.8 4,-5.00001 7.9,-10.10001 12,-15.100013 5.5,-6.9 11.9,-12.9 18.3,-18.8 8.5,-7.9 18,-14.7 27.8,-20.9 6.5,-4.1 13.3,-7.9 20.3,-11.2 4.7,-2.2 9.6,-4.3 14.5,-6.1 4.8,-1.7 9.6,-3.7 14.5,-4.8 5,-1.1 10,-2.8 15.2,-3.4 4.2,-0.5 8.4,-1.4 12.7,-2.1 3.7,-0.6 7.6,0 11.1,-0.9 4.9,-1.3 9.8,-0.6 14.6,-0.8 4.9,-0.2 9.7,0.9 14.6,1.2 4.3,0.2 8.9,0.9 13.1,1.9 4.5,1.1 9.3,1.3 13.5,3.6 7.9,1.1 15.1,4.5 22.3,7.6 7.2,3.1 14.5,6.5 20.8,11.5 0.4,0.3 1.1,0.4 2.1,0.7 -3.2,7.9 -7.5,15.1 -10.5,22.9 -3,7.6 -5.6,15.3 -8,23.700003 1,-0.4 1.8,-0.4 2.2,-0.9 0.7,-0.800003 1.4,-1.700003 1.8,-2.700003 0.5,-1.3 0.5,-2.8 1.1,-4 3.6,-7.3 6.9,-14.9 11.1,-21.9 5.1,-8.6 10.6,-17 16.2,-25.3 2.7,-4 6.2,-7.4 9.1,-11.3 4.2,-5.7 8.7,-11 13.9,-15.7 2.9,-2.7 6.2,-5.1 9.5,-7.3 3.2,-2.1 7.2,-1.3 10.8,2 4.8,4.4 9.2,9.2 12.5,14.8 3.6,6.1 6.6,12.5 9.1,19.2 1.4,3.9 3,7.8 4.2,11.8 0.7,2.4 1.5,4.7 2.1,7.1 0.6,2.4 1.6,4.8 1.6,7.3 0,1.2 0.7,2.4 0.9,3.6 0.5,2.2 0.9,4.3 1.2,6.6 0.2,2 0.3,4.3 1,6 1.3,3.2 0.1,6.4 1.3,9.500003 1.2,3 -0.2,6.3 0.7,9.2 1.5,5.00001 0.7,10.10001 0.9,15.10001 0.2,5 0,10 0,15 0,2.6 -1.4,4.9 -1.1,7.6 0.3,2.3 0.8,4.9 -0.9,7.1 0.7,3.3 -0.8,6.4 -1.1,9.6 -0.3,3.6 -1,7.2 -2,10.7 -1.6,6 -3.5,11.9 -5.4,17.7 -2.4,7.2 -6,13.8 -9.4,20.6 -3.4,6.8 -7.3,13.1 -12.1,19 -2.3,2.9 -4.7,5.7 -7.1,8.6 0.8,1.2 2.2,1.3 2.9,0.5 2.4,-2.7 6.3,-3.8 7.9,-7.6 0.6,-1.6 2.6,-2.5 3.8,-4 5.1,-6.2 10.3,-12.4 13.8,-19.8 1.1,-2.2 2.6,-4.2 3.8,-6.4 1.4,-2.7 2.8,-5.5 4,-8.4 1.2,-2.8 2.2,-5.7 3.5,-9.1 1.6,5.7 2.8,10.8 3.6,16.1 0.7,4.4 1.4,8.8 2.1,13.2 0.4,2.7 0.2,5.5 0.9,8.1 0.7,4.5 -0.3,9.2 0.7,13.5 1.3,5.4 0.6,10.8 0.8,16.1 0.2,5.5 0.7,11.1 -0.1,16.5 -0.8,5.1 -0.1,10.2 -1,15.1 -0.6,3.6 -0.2,7.2 -1,10.6 -0.7,2.9 -0.4,5.8 -0.9,8.6 -0.8,4.9 -1.4,9.8 -2.1,14.7 -0.6,4.2 -1,8.5 -2,12.7 -0.5,2.1 -0.2,4.3 -1,6.1 -0.9,2.1 0,4.5 -1.2,6 -1.5,1.9 0,4 -1.4,6 -1,1.4 -0.7,3.9 -1.1,5.9 -0.6,3.3 -1.6,6.4 -2,9.7 -0.4,3.3 -1.5,6.5 -2,9.7 -0.4,2.8 -1.1,5.5 -1.8,8.3 -0.6,2.8 -0.6,5.7 -1.5,8.4 -1.2,3.6 -1.4,7.3 -2.7,10.9 -0.7,1.9 -0.2,4 -1.1,6.1 -0.8,2 -0.7,4.4 -1.1,6.5 -0.4,2.2 -1.4,4.3 -1.1,6.6 -2.1,1.6 0.3,4.6 -1.9,6.2 0.7,3 -1,5.7 -1.1,8.6 0,1.7 -0.6,3.4 -0.9,5.1 -0.3,1.7 0.8,3.7 -1,5.1 -0.2,0.1 0,0.6 0,1 0.2,8.2 -1.8,16.4 -1,24.6 0.2,2 0.8,4 1.5,5.9 0.6,-2.6 0.4,-5.2 0.4,-7.8 0,-2.6 0,-5.3 0,-8.3 4.4,-1 8.6,-2 12.8,-3 3.3,-0.8 6.8,-1.2 10,-2.5 2.1,-0.9 4.6,0.5 6.4,-1.5 6,-0.3 11.7,-2.5 17.7,-3.2 2,-0.2 4.3,-0.2 6,-1 1.9,-0.8 3.8,-0.5 5.6,-0.9 4.4,-1 8.8,-1.5 13.2,-2.1 2.5,-0.4 5.4,0 7.5,-1 2.7,-1.2 5.2,-0.3 7.7,-0.8 9.3,-2.1 18.7,-0.5 28.1,-0.9 2.4,-0.1 4.7,-0.2 7.1,0.9 2,0.9 4.6,-0.8 6.5,1.1 5.5,-0.4 10.5,2.1 15.7,3.1 3.5,0.6 6.6,2.6 9.9,3.7 7.7,2.5 14.2,7 20.8,11.3 2.6,1.6 4.9,3.7 7.1,5.8 4.8,4.7 9.8,9.3 13.8,14.8 2.4,3.3 4.7,6.7 6.9,10.2 2,3.3 4,6.7 5.5,10.2 3.3,7.8 6.6,15.6 8.7,23.9 1.2,5 2.4,10 3.7,14.9 1,3.8 0.4,8.1 1.2,12 1.8,8 0.5,16.1 0.9,24.1 0.1,2.2 0.8,4.7 -0.2,6.4 -1.1,2 -0.6,3.8 -0.8,5.7 -0.2,2.1 -0.2,4 -0.9,6.1 -0.7,2.2 -0.7,4.7 -1,7.1 -0.6,4.8 -1.5,9.5 -2.3,14.1 -0.9,4.8 -2,9.5 -3.1,14.2 -0.9,3.8 -1.4,7.6 -2.7,11.3 -1.2,3.4 -1.9,6.9 -2.7,10.4 -0.8,3.5 -1.7,7 -2.3,10.5 -1.1,5.7 -3.1,11.3 -3,17.2 -2.2,2.7 -0.6,6.1 -1.8,9.3 -1.1,2.9 -0.2,6.6 -0.2,9.9 0,3.3 -0.5,6.8 0.1,10 0.8,4.2 1.7,8.5 3.9,12.4 0.7,1.2 1.5,2.4 2.9,4.4 0,-4.3 0,-7.5 0,-10.7 2.4,-0.9 4.9,0.6 6.9,-1.3 0.3,-0.2 1.2,-0.2 1.4,0 1.7,1.6 3.7,0.7 5.6,1 3.8,0.5 7,1.6 9.3,5.3 2,3.2 3.7,6.5 5.4,9.8 1.6,3.3 4.2,6.2 4.5,10.1 3.3,5.1 4.7,11 7,16.6 1.9,4.7 3.4,9.6 5,14.4 1.5,4.5 3.2,9 4.4,13.7 1.5,5.5 3.4,11 4.6,16.6 0.6,3.1 1,6.2 2.3,9 1.3,2.9 0.7,6.3 2.7,8.9 0.3,5.4 2.4,10.4 3,15.8 0.3,2.3 0.7,4.7 1.7,6.8 0.9,2.1 -0.4,4.3 1.1,6.6 1,1.6 0.4,4.3 1,6.5 0.9,3 0.7,6.4 1.2,9.5 0.9,6 2.1,12 2,18.2 1.6,2.4 1,5 1,7.6 0,2.3 1.5,4.2 1.1,6.6 -0.4,2.1 -0.6,4.5 0,6.4 1.5,4.2 0.2,8.5 1,12.6 1.8,10.5 0.7,21.1 0.9,31.6 0.2,10.7 0.2,21.3 0,32 -0.1,6 -1.2,12 -1,18.09996 0.2,6 0.6,12.1001 -0.1,18.0001 -0.6,4.6 -1,9.3 -2.6,13.9 -1.5,4.3 -3.1,8.5 -5.3,12.3 -4.7,8 -11.3,13.5 -20.8,15.2 -1.9,0.3 -4.1,0.2 -5.5,1.1 -1.8,1.1 -3.6,0.2 -5.2,0.9 -2.7,1.1 -5.5,0.4 -8.1,1 -6.9,1.6 -13.7,0.7 -20.6,0.9 -6.8,0.2 -13.7,0 -20.5,0 -3.7,0 -7.3,0.2 -11,-0.1 -5,-0.4 -10,-1.4 -15.1,-0.9 -2,-1.4 -4.4,-0.6 -6.6,-1.1 -2,-0.5 -4.1,-0.6 -6.1,-1 -5,-0.9 -9.9,-2.6 -14.3,-5.2 -2.9,-1.8 -4.1,-6.6 -2.9,-10.5 1.7,-5.9 4.3,-11.6 6.6,-17.3 2.9,-7 5.5,-14.1 8,-21.2001 3,-8.29996 6,-16.49996 8.6,-24.89996 1.6,-5.2 3.4,-10.3 4.5,-15.7 0.8,-3.9 2.7,-7.6 2.9,-11.8 1.9,-1.9 -0.1,-4.9 1.9,-6.7 -0.1,-4.7 2.4,-9 2,-13.7 1.5,-2 0.2,-4.7 1.2,-6.5 1.3,-2.3 0.1,-4.6 0.9,-6.7 1.2,-3.3 0.3,-6.9 1.1,-10.1 1.4,-5.6 0.3,-11.1 0.9,-16.6 0.6,-4.5 1,-9 1,-13.6 0,-3.8 -1.5,-7.3 -1.1,-11.1 0.3,-3.6 0.7,-7.5 -0.1,-11 -0.7,-3.2 -0.7,-6.4 -0.8,-9.6 0,-1.9 -1.4,-3.5 -1.1,-5.6 0.2,-1.7 -0.1,-3.4 -0.7,-5.1 -0.8,-2.3 -0.1,-5 -1.1,-7.6 -0.7,-1.9 -0.2,-4 -1,-6.1 -0.8,-2 -0.9,-4.3 -1.1,-6.5 -0.2,-2.1 -1.7,-3.9 -1,-6.1 -2.4,-7.1 -2.8,-14.7 -6,-21.5 -0.6,-6.6 -3.3,-12.7 -5.2,-18.9 -1.8,-6 -3.9,-12 -6,-18 -1.2,-3.4 -2.7,-6.9 -4.1,-10.3 -3.1,-7.7 -6.4,-15.4 -9.9,-22.9 -4.3,-9.2 -8.9,-18.3 -13.4,-27.5 -0.9,-1.9 -1.8,-3.9 -2.9,-5.8 -1,-1.8 -0.9,-3.3 0.6,-4.8 6.8,-7.1 11.7,-15.5 15.8,-24.4 3.1,-6.6 5.4,-13.5 7,-20.6 0.1,-0.6 0.8,-1.1 0.8,-1.6 -0.1,-0.9 -0.5,-1.7 -1.1,-3.4 -0.8,1.6 -1.3,2.5 -1.7,3.4 -1.4,3.4 -2.1,7.1 -4,10.4 -1.3,2.3 -1.9,4.9 -3.1,7.2 -3.8,7.1 -7.8,14.1 -13.5,19.9 -1.8,1.8 -3.1,4.2 -5,5.9 -6.5,6 -13.7,11.3 -21.5,15.6 -7.7,4.3 -15.9,7.7 -24.3,10 -5.2,1.4 -10.5,3.3 -16.1,3.5 -2,0.1 -4,1 -6.4,0.8 -2,-3.8 -3.9,-7.9 -6.1,-11.8 -2.6,-4.6 -5.3,-9.2 -8.1,-13.6 -0.3,-0.5 -1.7,-0.4 -2.7,-0.6 2.4,6.7 4.6,13 6.8,19.3 2.2,6.4 4.3,12.9 6.2,19.4 2,6.7 4.1,13.3 5.9,20.1 2.3,8.5 3.8,17.3 6.8,25.7 -0.4,4.2 1.6,8.1 2.3,12.1 0.6,3.6 1.5,7.3 2.5,10.9 0.6,2.1 0.9,4.3 1.2,6.5 0.3,1.7 0,3.4 1,5.1 0.7,1.3 0.1,3 0.9,4.6 0.9,1.8 0.3,4.3 1.1,6.5 0.9,2.8 0.7,6 1.2,9 0.8,4.9 2,9.7 2,14.7 1.6,2.4 0.4,5.2 1.1,7.5 0.7,2.4 0.7,4.7 0.9,7.1 0.2,1.9 0.8,3.7 0.9,5.6 0.2,1.8 -0.5,3.9 0.1,5.5 1.2,3 0.3,6.2 1,9.1 1,4.2 0.2,8.5 1.1,12.6 1,4.6 0.1,9.2 0.9,13.6 1.6,8.7 0,17.5 1.1,26.1 0.8,5.7 0.6,11.4 0.8,17.1 0.2,5.7 0.6,11.4 -0.1,17 -1.1,8.7 -0.2,17.5 -1.1,26.1 -0.5,4.6 -0.1,9.2 -0.9,13.6 -0.7,3.89996 -0.3,7.79996 -1,11.59996 -0.6,3.1001 0,6.4001 -1,9.0001 -1.4,3.6 -0.1,7.3 -1.6,10.8 -0.9,2.2 -0.6,5 -1.1,7.5 -1.1,5.8 -2.5,11.6 -4,17.3 -2.2,8.1 -6.8,14.6 -13.3,19.4 -4.1,3.1 -9.1,5.3 -14.2,6.6 -4.7,1.2 -9.3,3.1 -14.3,3 -2.5,2 -5.6,0.6 -8.4,1.4 -2.8,0.8 -5.9,0.1 -8.8,0.7 -9.3,1.9 -18.7,0.6 -28.1,0.9 -9.5,0.2 -19,0.5 -28.5,-0.1 -6.8,-0.4 -13.7,-1.4 -19.9,-4.9 -4.7,-2.6 -7.7,-6.2 -8.8,-11.7 -0.6,-3.2 -0.7,-6 -0.1,-9.2 0.7,-4.2 1.5,-8.3 2.9,-12.3 1.4,-3.8 2.6,-7.6 4.1,-11.3 1.7,-4.1 3.4,-8.3 5.1,-12.4 2.9,-7.1 5.8,-14.3001 8,-21.7001 3,-9.79996 5.9,-19.59996 8.2,-29.59996 1,-4.4 1.8,-8.9 3,-13.3 1,-3.6 1.7,-7.3 2.6,-10.9 0.6,-2.5 0.8,-5.3 1.3,-8 0.5,-2.7 1.4,-5.3 1,-8.1 2.4,-1.9 -0.4,-5.3 2,-7.2 0,-2.7 0.2,-5.4 0.9,-8.1 0.9,-3.7 0.1,-8 1.3,-11.5 1.3,-3.6 -0.4,-7.5 1.8,-10.7 0.1,-0.1 0,-0.3 0,-0.5 0,-3.1 0.4,-6.1 0.8,-9.1 0.9,-5.8 0.4,-11.8 1.3,-17.5 0.8,-5.1 0.1,-10.2 1.1,-15.1 1,-5.1 0.1,-10.2 0.9,-15.1 1.6,-9.9 -0.1,-19.8 1.1,-29.6 1.1,-8.7 0.5,-17.4 0.7,-26.1 0.2,-8.8 0.8,-17.8 -0.2,-26.5 -1.1,-9.9 0.2,-19.8 -1,-29.6 -0.8,-7.1 0,-14.2 -1,-21.1 -0.7,-4.7 -0.5,-9.4 -0.8,-14.1 -0.1,-1.5 -0.7,-3 -1.3,-5.8 -1.1,3.5 -2.1,5.8 -2.6,8.2 -0.6,3.1 -0.8,6.3 -1.2,9.5 -3,1.5 -5.8,-0.3 -8.4,-0.9 -4.3,-1.1 -8.7,-2.1 -12.9,-3.7 -4.2,-1.6 -8.7,-2.4 -12.8,-4.1 -5,-2 -10.1,-3.8 -15.1,-5.8 -6.6,-2.6 -12.9,-6 -19.2,-9.2 -6.4,-3.2 -12.1,-7.3 -17.7,-11.7 -6.4,-5 -11.7,-11.1 -17.5,-16.7 -6,-5.8 -10.6,-12.8 -15.2,-19.7 -3.8,-5.7 -7.1,-11.7 -9.9,-17.9 -2.3,-5.2 -4.2,-10.6 -6,-16 -2,-5.9 -3.1,-12 -4.9,-17.9 -0.9,-2.9 -0.8,-6 -1.1,-9.1 -0.1,-2.1 -1.5,-3.8 -1.1,-6.1 0.3,-2 0.3,-4.1 -0.9,-6.1 -0.4,-0.7 -0.1,-2 -0.1,-3 0,-8.7 0.3,-17.3 -0.1,-26 -0.3,-7.8 1.3,-15.4 1.1,-23.1 0,-1.9 1.3,-3.6 1,-5.6 -0.2,-1.7 -0.3,-3.5 0.9,-5.1 0.3,-0.4 0,-1.3 0.1,-2 0.1,-2.1 -0.2,-4.1 0.9,-6.1 0.9,-1.6 -0.8,-4 1.1,-5.5 -0.4,-2.8 0.4,-5.5 1,-8.1 1.2,-4.6 1.7,-9.3 2.6,-13.9 0.8,-4 1.9,-8 2.5,-12.1 0.6,-4.4 2.1,-8.8 3.2,-13.2 0.9,-3.6 1.5,-7.3 2.6,-10.9 0.9,-2.8 1.6,-3.8 4.6,-4.5 6.4,-1.4 12.4,-3.8 18.5,-6 0.7,-0.3 1.3,-0.9 2.5,-1.6 -2.3,-0.3 -3.9,-0.2 -5.8,0.4 -5.7,1.7 -11.3,3.3 -17.2,4.5 -4.8,0.9 -9.7,1 -14.3,2.7 -1.3,0.5 -3,-0.1 -4.5,0.1 -1.4,0.2 -2.7,0.9 -4.1,0.9 -8.9,0.4 -17.7,1.3 -26.6,1.1 -9,-0.3 -18,0 -27,-0.1 -2.5,0 -5.1,-0.6 -7.6,-1 -2.4,-0.4 -4.9,0.9 -7.1,-1 -0.3,-0.2 -1,-0.1 -1.5,0 -3.1,0.7 -6,-0.9 -9.1,-1.1 -2.9,-0.1 -5.8,-0.3 -8.6,-1 -6.1,-1.7 -12.4,-3.2 -18.5,-4.6 -7.9,-1.9 -15.3,-5 -23,-7.4 -3.1,-1 -5.9,-3.1 -9.4,-5 1.8,-0.8 3,-1.6 4.2,-1.8 5.7,-1.2 10.3,-4.5 14.7,-7.9 4,-3 6.2,-7.5 7.8,-12.2 1.7,-4.9 0.7,-9.9 0.6,-14.9 -0.8,2.1 -1.7,4.2 -2.5,6.3 -2.6,7.4 -4.8,10 -10.8,15 -4,3.3 -8.4,5.5 -13.1,7 -2.4,0.7 -4.7,1.9 -7.3,1.6 -1.7,-0.2 -3,2.2 -4.9,0.6 -1.3,-1.1 -2.9,-1.7 -4.4,-2.5 -0.1,-0.1 -0.2,-0.2 -0.4,-0.3 -3.5,-3.2 -7.3,-6.1 -10.5,-9.6 -4.4,-5 -8.6,-10.1 -11.3,-16.3 -1.9,-4.2 -3.2,-8.7 -4.5,-13.2 -0.7,-2.6 -0.8,-5.1 -0.9,-7.6 -0.1,-1.2 -1,-2.4 -0.9,-3.6 0.3,-5.3 0.8,-10.6 5.5,-14.4 2,0 4.2,0.2 6.3,0 4.4,-0.5 9,-0.8 13,-2.4 5.4,-2.2 10.7,-4.8 14.6,-9.4 2.9,-3.3 5.8,-6.6 8.9,-9.8 0.8,-0.8 0.5,-1.7 0.7,-2.5 0.4,-1.4 -1.9,-0.4 -1.4,-0.7 3.7,-2 -9.9,9.6 -18.6,13.9 M 380.3,76.421927 c 0.6,1.3 1.2,2.1 1.4,3 0.9,6.3 2.4,12.5 2.8,18.7 0.4,6.000003 1.1,12.000003 1.1,18.100013 0,6.5 -0.6,13 -0.9,19.6 0,0.3 0.1,0.8 0,1 -1.6,1.7 -0.7,3.7 -1,5.6 -0.3,1.9 -0.8,3.7 -0.9,5.6 -0.1,1.6 -0.3,3.1 -1,4.6 -0.6,1.4 -0.6,3.1 -0.9,4.6 -0.9,3.8 -2.3,7.5 -3,11.2 -1.3,6.4 -4,12.3 -6.2,18.4 -0.5,1.3 -1.5,2.1 0,3.2 0.1,0.1 -0.3,0.9 -0.5,1.4 0.5,-0.2 1.4,-0.3 1.5,-0.6 3.1,-7 7.2,-13.6 9.4,-21.1 1.4,-4.7 3.3,-9.3 4.6,-14.1 0.5,-1.8 0.7,-3.8 0.9,-5.6 0.2,-1.9 1.4,-3.6 1.2,-5.6 -0.2,-2 0.6,-3.7 0.9,-5.6 0.4,-2.4 0,-5 0.1,-7.5 0.2,-2.4 0.8,-4.7 0.9,-7.1 0.1,-3.7 -0.4,-7.4 -0.8,-11.1 -0.5,-5.80001 -1.1,-11.40001 -2.1,-17.200013 -1,-5.9 -2.7,-11.5 -4.1,-17.3 -0.3,-1.3 -1,-2.2 -3.4,-2.2 z M 63.1,341.12194 c -0.7,0.5 -1.5,0.8 -2,1.4 -0.9,1.1 -2.2,2.2 -2.3,3.5 -0.2,2.2 -2,2.5 -3.3,3 -1.4,0.5 -3.4,0.6 -4.6,0 -1.9,-1 -3.4,-0.2 -5.3,-0.6 2.2,5.1 6.7,7.2 11.2,6.1 6.6,-1.6 8,-6.5 6.3,-13.4 z"
     id="path5"
     inkscape:connector-curvature="0"
     style="fill:#ffffff" /></svg>