<?xml version="1.0" encoding="UTF-8" standalone="no"?>
<!-- Generator: Adobe Illustrator 18.0.0, SVG Export Plug-In . SVG Version: 6.00 Build 0)  -->

<svg
   xmlns:dc="http://purl.org/dc/elements/1.1/"
   xmlns:cc="http://creativecommons.org/ns#"
   xmlns:rdf="http://www.w3.org/1999/02/22-rdf-syntax-ns#"
   xmlns:svg="http://www.w3.org/2000/svg"
   xmlns="http://www.w3.org/2000/svg"
   xmlns:sodipodi="http://sodipodi.sourceforge.net/DTD/sodipodi-0.dtd"
   xmlns:inkscape="http://www.inkscape.org/namespaces/inkscape"
   version="1.1"
   id="Layer_1"
   x="0px"
   y="0px"
   viewBox="0 0 1756 1098.4219"
   enable-background="new 0 0 960 560"
   xml:space="preserve"
   inkscape:version="0.91 r13725"
   sodipodi:docname="ponyBodyEx.svg"
   width="1756"
   height="1098.4219"><metadata
     id="metadata21"><rdf:RDF><cc:Work
         rdf:about=""><dc:format>image/svg+xml</dc:format><dc:type
           rdf:resource="http://purl.org/dc/dcmitype/StillImage" /><dc:title /></cc:Work></rdf:RDF></metadata><defs
     id="defs19" /><sodipodi:namedview
     pagecolor="#ffffff"
     bordercolor="#666666"
     borderopacity="1"
     objecttolerance="10"
     gridtolerance="10"
     guidetolerance="10"
     inkscape:pageopacity="0"
     inkscape:pageshadow="2"
     inkscape:window-width="1920"
     inkscape:window-height="1018"
     id="namedview17"
     showgrid="false"
     fit-margin-top="0"
     fit-margin-left="0"
     fit-margin-right="0"
     fit-margin-bottom="0"
     inkscape:zoom="1.7147339"
     inkscape:cx="752.40328"
     inkscape:cy="853.95519"
     inkscape:window-x="-8"
     inkscape:window-y="-8"
     inkscape:window-maximized="1"
     inkscape:current-layer="layer2" /><g
     inkscape:groupmode="layer"
     id="layer2"
     inkscape:label="Layer 2"
     style="display:inline"><path
       style="opacity:1;fill:#ffffff;fill-opacity:1;fill-rule:evenodd;stroke:#000000;stroke-width:5;stroke-miterlimit:4;stroke-dasharray:none;stroke-opacity:1"
       d="m -22.434536,-36.423566 -4.948453,1293.195766 1847.422489,3.299 1.6495,-1281.649406 z M 860.94878,11.404297 c 2.26953,0.01172 4.67578,1.097656 6.92578,3.160156 4.8,4.4 9.2,9.198828 12.5,14.798828 3.6,6.1 6.59961,12.501172 9.09961,19.201172 1.4,3.9 2.99922,7.798828 4.19922,11.798828 0.7,2.4 1.49961,4.701563 2.09961,7.101563 0.6,2.4 1.60156,4.798828 1.60156,7.298828 0,1.2 0.69844,2.399609 0.89844,3.599609 0.5,2.2 0.90117,4.301563 1.20117,6.601563 0.2,2 0.3,4.3 1,6 1.3,3.2 0.0988,6.399997 1.29883,9.499996 1.2,3 -0.19883,6.29922 0.70117,9.19922 1.5,5.00001 0.70039,10.09961 0.90039,15.09961 0.2,5 0,10 0,15 0,2.6 -1.40156,4.89961 -1.10156,7.59961 0.3,2.3 0.80156,4.90156 -0.89844,7.10156 0.7,3.3 -0.80156,6.39961 -1.10156,9.59961 -0.3,3.6 -1,7.19922 -2,10.69922 -1.6,6 -3.49844,11.90117 -5.39844,17.70117 -2.4,7.2 -6.00039,13.79961 -9.40039,20.59961 -3.4,6.8 -7.29961,13.1 -12.09961,19 -2.3,2.9 -4.70156,5.69961 -7.10156,8.59961 0.8,1.2 2.20039,1.3 2.90039,0.5 2.4,-2.7 6.30039,-3.79961 7.90039,-7.59961 0.6,-1.6 2.60078,-2.5 3.80078,-4 5.1,-6.2 10.29883,-12.40078 13.79883,-19.80078 1.1,-2.2 2.60078,-4.20039 3.80078,-6.40039 1.4,-2.7 2.8,-5.49844 4,-8.39844 1.2,-2.8 2.2,-5.70156 3.5,-9.10156 1.6,5.7 2.79961,10.80156 3.59961,16.10156 l 2.09961,13.19922 c 0.4,2.7 0.20039,5.49961 0.90039,8.09961 0.7,4.5 -0.30078,9.2 0.69922,13.5 1.3,5.4 0.60078,10.79961 0.80078,16.09961 0.2,5.5 0.70039,11.1 -0.0996,16.5 -0.8,5.10001 -0.1,10.20156 -1,15.10156 -0.6,3.6 -0.2,7.19961 -1,10.59961 -0.7,2.9 -0.40039,5.79961 -0.90039,8.59961 -0.8,4.9 -1.39961,9.79922 -2.09961,14.69922 -0.6,4.2 -1,8.50117 -2,12.70117 -0.5,2.1 -0.2,4.29961 -1,6.09961 -0.9,2.1 -0.001,4.5 -1.20117,6 -1.5,1.9 0.002,4 -1.39844,6 -1,1.4 -0.70156,3.90039 -1.10156,5.90039 -0.6,3.3 -1.6,6.39922 -2,9.69922 -0.4,3.3 -1.5,6.50117 -2,9.70117 -0.4,2.8 -1.09883,5.49883 -1.79883,8.29883 -0.6,2.8 -0.6,5.70039 -1.5,8.40039 -1.2,3.6 -1.40117,7.30039 -2.70117,10.90039 -0.7,1.9 -0.19961,3.99961 -1.09961,6.09961 -0.8,2 -0.69961,4.4 -1.09961,6.5 -0.4,2.2 -1.39961,4.29961 -1.09961,6.59961 -2.1,1.6 0.29961,4.60117 -1.90039,6.20117 0.7,3 -0.99961,5.69961 -1.09961,8.59961 0,1.7 -0.60039,3.39961 -0.90039,5.09961 -0.3,1.7 0.8,3.69961 -1,5.09961 -0.2,0.1 0,0.6 0,1 0.2,8.2 -1.8,16.39961 -1,24.59961 0.2,2 0.8,4.00039 1.5,5.90039 0.6,-2.6 0.40039,-5.19883 0.40039,-7.79883 l 0,-8.30078 c 4.4,-1 8.59883,-2 12.79883,-3 3.3,-0.8 6.8,-1.2 10,-2.5 2.1,-0.9 4.60039,0.5 6.40039,-1.5 6,-0.3 11.70117,-2.49922 17.70117,-3.19922 2,-0.2 4.3,-0.2 6,-1 1.9,-0.8 3.79961,-0.50039 5.59961,-0.90039 4.4,-1 8.79922,-1.49961 13.19922,-2.09961 2.5,-0.4 5.4,0 7.5,-1 2.7,-1.2 5.20117,-0.30078 7.70117,-0.80078 9.3,-2.1 18.69961,-0.50039 28.09961,-0.90039 2.40002,-0.1 4.69962,-0.19961 7.09962,0.90039 2,0.9 4.6,-0.80039 6.5,1.09961 5.5,-0.4 10.4992,2.09961 15.6992,3.09961 3.5,0.6 6.6004,2.60117 9.9004,3.70117 7.7,2.5 14.2008,6.99883 20.8008,11.29883 2.6,1.6 4.8996,3.70078 7.0996,5.80078 4.8,4.7 9.8008,9.30078 13.8008,14.80078 2.4,3.3 4.6984,6.69922 6.8984,10.19922 2,3.3 4,6.69922 5.5,10.19922 3.3,7.8 6.6012,15.60039 8.7012,23.90039 1.2,5 2.3992,10.00039 3.6992,14.90039 1,3.8 0.4012,8.1 1.2012,12 1.8,8 0.4984,16.09961 0.8984,24.09961 0.1,2.2 0.8008,4.70039 -0.1992,6.40039 -1.1,2 -0.6008,3.79922 -0.8008,5.69922 -0.2,2.1 -0.1984,4.00156 -0.8984,6.10156 -0.7,2.2 -0.7,4.69961 -1,7.09961 -0.6,4.8 -1.5008,9.49961 -2.3008,14.09961 -0.9,4.8 -1.9996,9.49922 -3.0996,14.19922 -0.9,3.8 -1.4012,7.60078 -2.7012,11.30078 -1.2,3.4 -1.8992,6.90039 -2.6992,10.40039 -0.8,3.5 -1.7008,7 -2.3008,10.5 -1.1,5.7 -3.1,11.29922 -3,17.19922 -2.2,2.7 -0.5988,6.10078 -1.7988,9.30078 -1.1,2.9 -0.2012,6.60039 -0.2012,9.90039 0,3.3 -0.4984,6.8 0.1016,10 0.8,4.2 1.6984,8.49844 3.8984,12.39844 0.7,1.2 1.5004,2.40039 2.9004,4.40039 l 0,-10.69922 c 2.4,-0.9 4.9004,0.59922 6.9004,-1.30078 0.3,-0.2 1.2004,-0.2 1.4004,0 1.7,1.6 3.6996,0.7 5.5996,1 3.8,0.5 7.0008,1.60078 9.3008,5.30078 2,3.2 3.6984,6.49883 5.3984,9.79883 1.6,3.3 4.2,6.20156 4.5,10.10156 3.3,5.1 4.7,10.99961 7,16.59961 1.9,4.7 3.4,9.60039 5,14.40039 1.5,4.5 3.2004,8.99922 4.4004,13.69922 1.5,5.5 3.3996,10.99961 4.5996,16.59961 0.6,3.1 1.0008,6.2 2.3008,9 1.3,2.9 0.6992,6.30039 2.6992,8.90039 0.3,5.4 2.4,10.40078 3,15.80078 0.3,2.3 0.7012,4.69883 1.7012,6.79883 0.9,2.1 -0.4004,4.29961 1.0996,6.59961 1,1.6 0.4,4.3 1,6.5 0.9,3 0.6992,6.4 1.1992,9.5 0.9,6 2.1,12.00117 2,18.20117 1.6,2.4 1,4.99961 1,7.59961 0,2.3 1.5016,4.19961 1.1016,6.59961 -0.4,2.1 -0.6,4.50039 0,6.40039 1.5,4.2 0.2,8.49961 1,12.59961 1.8,10.5 0.6984,21.09961 0.8984,31.59961 0.2,10.7 0.2,21.3 0,32 -0.1,6 -1.2,12.00159 -1,18.10152 0.2,6 0.6004,12.1 -0.1,18 -0.6,4.6 -0.9996,9.2985 -2.5996,13.8985 -1.5,4.3 -3.1008,8.5008 -5.3008,12.3008 -4.7,8 -11.2988,13.4992 -20.7988,15.1992 -1.9,0.3 -4.1,0.2015 -5.5,1.1015 -1.8,1.1 -3.6012,0.1985 -5.2012,0.8985 -2.7,1.1 -5.4996,0.4 -8.0996,1 -6.9,1.6 -13.6996,0.7004 -20.5996,0.9004 -6.8,0.2 -13.7,0 -20.5,0 -3.7,0 -7.3,0.2004 -11,-0.1 -5,-0.4 -9.9996,-1.4004 -15.0996,-0.9004 -2,-1.4 -4.3996,-0.5996 -6.5996,-1.0996 -2,-0.5 -4.1016,-0.6 -6.1016,-1 -5,-0.9 -9.8988,-2.5993 -14.2988,-5.1993 -2.9,-1.8 -4.1004,-6.6 -2.9004,-10.5 1.7,-5.9 4.2996,-11.6007 6.5996,-17.3007 2.9,-7 5.5,-14.0992 8,-21.1993 3,-8.2999 5.9996,-16.50035 8.5996,-24.90035 1.6,-5.2 3.4,-10.30117 4.5,-15.70117 0.8,-3.9 2.7004,-7.59883 2.9004,-11.79883 1.9,-1.9 -0.1,-4.90117 1.9004,-6.70117 -0.1,-4.7 2.4,-8.99922 2,-13.69922 1.5,-2 0.1992,-4.7 1.1992,-6.5 1.3,-2.3 0.1004,-4.59922 0.9004,-6.69922 1.2,-3.3 0.2996,-6.90156 1.0996,-10.10156 1.4,-5.6 0.3004,-11.09961 0.9004,-16.59961 0.6,-4.5 1,-8.99961 1,-13.59961 0,-3.8 -1.4996,-7.29961 -1.0996,-11.09961 0.3,-3.6 0.7004,-7.5 -0.1,-11 -0.7,-3.2 -0.7008,-6.39961 -0.8008,-9.59961 0,-1.9 -1.3996,-3.50156 -1.0996,-5.60156 0.2,-1.7 -0.099,-3.39961 -0.6992,-5.09961 -0.8,-2.3 -0.1016,-4.99961 -1.1016,-7.59961 -0.7,-1.9 -0.2,-3.99961 -1,-6.09961 -0.8,-2 -0.8996,-4.3 -1.0996,-6.5 -0.2,-2.1 -1.7,-3.89961 -1,-6.09961 -2.4,-7.1 -2.8,-14.7 -6,-21.5 -0.6,-6.6 -3.2992,-12.70039 -5.1992,-18.90039 -1.8,-6 -3.9,-12 -6,-18 -1.2,-3.4 -2.6996,-6.90078 -4.0996,-10.30078 -3.1,-7.7 -6.4004,-15.40039 -9.9004,-22.90039 -4.3,-9.2 -8.9004,-18.3 -13.4004,-27.5 -0.9,-1.9 -1.8004,-3.89883 -2.9004,-5.79883 -1,-1.8 -0.9004,-3.30078 0.5996,-4.80078 6.8,-7.1 11.7008,-15.50039 15.8008,-24.40039 3.1,-6.6 5.4,-13.49961 7,-20.59961 0.1,-0.6 0.8008,-1.09961 0.8008,-1.59961 -0.1,-0.9 -0.5016,-1.70039 -1.1016,-3.40039 -0.8,1.6 -1.2992,2.50039 -1.6992,3.40039 -1.4,3.4 -2.1,7.10039 -4,10.40039 -1.3,2.3 -20.4563,40.77551 -21.6563,43.07551 26.704,-10.81196 81.1961,292.61359 23.6134,329.17874 -6.114,12.9898 -60.9494,4.6038 -54.27835,-16.78 -4.17533,22.7892 39.24885,-121.2673 24.40256,-167.85719 -0.41438,-2.98562 -29.14757,-133.25157 -39.48169,-129.01745 -5.2,1.4 -10.49961,3.3 -16.09961,3.5 -2,0.1 -4.00039,1.00078 -6.40039,0.80078 -2,-3.8 -3.89961,-7.90078 -6.09961,-11.80078 -2.6,-4.6 -5.29961,-9.19961 -8.09961,-13.59961 -0.3,-0.5 -1.70117,-0.39961 -2.70117,-0.59961 2.4,6.7 4.60078,12.99883 6.80078,19.29883 2.2,6.4 4.29922,12.90039 6.19922,19.40039 2,6.7 4.10039,13.29961 5.90039,20.09961 2.3,8.5 3.80078,17.30117 6.80078,25.70117 -0.4,4.2 1.59883,8.09961 2.29883,12.09961 0.6,3.6 1.5,7.30039 2.5,10.90039 0.6,2.1 0.90117,4.3 1.20117,6.5 0.3,1.7 0,3.39961 1,5.09961 0.7,1.3 0.10039,2.99961 0.90039,4.59961 0.9,1.8 0.29961,4.3 1.09961,6.5 0.9,2.8 0.69922,6 1.19922,9 0.8,4.9 2,9.69922 2,14.69922 1.6,2.4 0.39961,5.2 1.09961,7.5 0.7,2.4 0.70039,4.70156 0.90039,7.10156 0.2,1.9 0.80039,3.69961 0.90039,5.59961 0.2,1.8 -0.50039,3.9 0.0996,5.5 1.2,3 0.3,6.19961 1,9.09961 1,4.2 0.19961,8.49961 1.09961,12.59961 1,4.6 0.10039,9.19961 0.90039,13.59961 1.6,8.7 -3.9e-4,17.50156 1.09961,26.10156 0.8,5.7 0.60078,11.39961 0.80078,17.09961 0.2,5.7 0.60039,11.4 -0.0996,17 -1.1,8.7 -0.19961,17.49961 -1.09961,26.09961 -0.5,4.6 -0.10039,9.19958 -0.90039,13.59961 -0.7,3.89993 -0.3,7.79963 -1,11.59963 -0.6,3.1001 0,6.4 -1,9 -1.4,3.6 -0.0996,7.3008 -1.59961,10.8008 -0.9,2.2 -0.60156,5 -1.10156,7.5 -1.1,5.8 -2.5,11.6007 -4,17.3007 -2.2,8.1 -6.79883,14.5985 -13.29883,19.3985 -4.1,3.1 -9.10117,5.3015 -14.20117,6.6015 -4.7,1.2 -9.29883,3.1 -14.29883,3 -2.5,2 -5.60039,0.5985 -8.40039,1.3985 -2.8,0.8 -5.90078,0.1012 -8.80078,0.7012 -9.3,1.9 -18.69961,0.6003 -28.09961,0.9003 -9.5,0.2 -19,0.4985 -28.5,-0.1015 -6.8,-0.4 -13.70039,-1.3985 -19.90039,-4.8985 -4.7,-2.6 -7.69883,-6.2011 -8.79883,-11.7011 -0.6,-3.2 -0.69961,-5.9992 -0.0996,-9.1992 0.7,-4.2 1.49844,-8.3008 2.89844,-12.3008 1.4,-3.8 2.60156,-7.5989 4.10156,-11.2989 1.7,-4.1 3.39961,-8.3003 5.09961,-12.4003 2.9,-7.1 5.8,-14.3012 8,-21.7012 3,-9.79999 5.89922,-19.59963 8.19922,-29.59963 1,-4.4 1.8,-8.89883 3,-13.29883 1,-3.6 1.69961,-7.30039 2.59961,-10.90039 0.6,-2.5 0.80078,-5.3 1.30078,-8 0.5,-2.7 1.4,-5.29961 1,-8.09961 2.4,-1.9 -0.4,-5.30117 2,-7.20117 0,-2.7 0.20039,-5.39961 0.90039,-8.09961 0.9,-3.7 0.0988,-8 1.29883,-11.5 1.3,-3.6 -0.39922,-7.49922 1.80078,-10.69922 0.1,-0.1 0,-0.3 0,-0.5 0,-3.1 0.40078,-6.10156 0.80078,-9.10156 0.9,-5.8 0.39883,-11.8 1.29883,-17.5 0.8,-5.1 0.0996,-10.19961 1.09961,-15.09961 1,-5.1 0.10039,-10.19961 0.90039,-15.09961 1.6,-9.9 -0.10039,-19.79961 1.09961,-29.59961 1.1,-8.7 0.50117,-17.39961 0.70117,-26.09961 0.2,-8.8 0.79883,-17.8 -0.20117,-26.5 -1.1,-9.9 0.2,-19.80156 -1,-29.60156 -0.8,-7.1 0,-14.19961 -1,-21.09961 -0.7,-4.7 -0.49883,-9.39961 -0.79883,-14.09961 -0.1,-1.5 -0.70078,-3.00078 -1.30078,-5.80078 -1.1,3.5 -2.09961,5.80117 -2.59961,8.20117 -0.6,3.1 -0.79922,6.3 -1.19922,9.5 -3,1.5 -5.80039,-0.30039 -8.40039,-0.90039 -4.3,-1.1 17.07887,13.32755 14.72848,9.49666 -0.74947,-1.22155 8.95242,342.50328 -67.42678,332.87588 -7.70848,-3.3562 -62.76353,2.7447 -70.91416,-29.9741 -2.70064,27.288 10.86447,-40.99045 14.24012,-32.90469 36.00003,-70.48817 46.44128,-319.60265 31.67117,-313.99375 -6.4,-5 -11.7,-11.09922 -17.5,-16.69922 -6,-5.8 -10.59922,-12.80117 -15.19922,-19.70117 -3.8,-5.7 -7.10039,-11.70039 -9.90039,-17.90039 -2.3,-5.2 -4.2,-10.6 -6,-16 -2,-5.9 -3.10039,-11.99844 -4.90039,-17.89844 -0.9,-2.9 -0.79961,-6.00156 -1.09961,-9.10156 -0.1,-2.1 -1.49961,-3.79961 -1.09961,-6.09961 0.3,-2 0.29961,-4.09961 -0.90039,-6.09961 -0.4,-0.7 -0.0996,-2 -0.0996,-3 0,-8.7 0.30039,-17.3 -0.0996,-26 -0.3,-7.8 1.29961,-15.39961 1.09961,-23.09961 0,-1.9 1.3,-3.59961 1,-5.59961 -0.2,-1.7 -0.29961,-3.50156 0.90039,-5.10156 0.3,-0.4 -3.9e-4,-1.3 0.0996,-2 0.1,-2.1 -0.19961,-4.09961 0.90039,-6.09961 0.9,-1.6 -0.80039,-4 1.09961,-5.5 -0.4,-2.8 0.4,-5.49961 1,-8.09961 1.2,-4.6 1.69961,-9.30039 2.59961,-13.90039 0.8,-4 1.9,-7.99961 2.5,-12.09961 0.6,-4.4 2.10117,-8.79922 3.20117,-13.19922 0.9,-3.6 1.49961,-7.30039 2.59961,-10.90039 0.9,-2.8 1.59961,-3.8 4.59961,-4.5 6.4,-1.4 12.4,-3.8 18.5,-6 0.7,-0.3 1.3,-0.89961 2.5,-1.59961 -2.3,-0.3 -3.90078,-0.20156 -5.80078,0.39844 -5.7,1.7 -11.29922,3.3 -17.19922,4.5 -4.8,0.9 -9.70078,1.00117 -14.30078,2.70117 -1.3,0.5 -3,-0.10039 -4.5,0.0996 -1.4,0.2 -2.69961,0.90039 -4.09961,0.90039 -8.9,0.4 -17.69961,1.29961 -26.59961,1.09961 -9,-0.3 -18,3.9e-4 -27,-0.0996 -2.5,0 -5.09961,-0.6 -7.59961,-1 -2.4,-0.4 -4.89961,0.9 -7.09961,-1 -0.3,-0.2 -1,-0.1 -1.5,0 -3.1,0.7 -6.00156,-0.89961 -9.10156,-1.09961 -2.9,-0.1 -5.79961,-0.3 -8.59961,-1 -6.1,-1.7 -12.39999,-3.20156 -18.5,-4.60156 -7.9,-1.9 -15.3,-4.99844 -23,-7.39844 -3.1,-1 -5.90039,-3.1 -9.40039,-5 1.8,-0.8 3.00117,-1.60078 4.20117,-1.80078 5.7,-1.2 10.29922,-4.50039 14.69922,-7.90039 4,-3 6.20078,-7.49922 7.80078,-12.19922 1.7,-4.9 0.69961,-9.90039 0.59961,-14.90039 -0.8,2.1 -1.7,4.20078 -2.5,6.30078 -2.6,7.4 -4.80078,10 -10.80078,15 -4,3.3 -8.39961,5.5 -13.09961,7 -2.4,0.7 -4.69883,1.89961 -7.29883,1.59961 -1.7,-0.2 -3.00039,2.19961 -4.90039,0.59961 -1.3,-1.1 -2.90039,-1.7 -4.40039,-2.5 -0.1,-0.1 -0.20039,-0.20078 -0.40039,-0.30078 -3.5,-3.2 -7.3,-6.09961 -10.5,-9.59961 -4.4,-5 -8.59883,-10.09883 -11.29883,-16.29883 -1.9,-4.2 -3.2,-8.70117 -4.5,-13.20117 -0.7,-2.6 -0.80039,-5.09961 -0.90039,-7.59961 -0.1,-1.2 -1.00039,-2.39961 -0.90039,-3.59961 0.3,-5.3 0.8,-10.60039 5.5,-14.40039 2,0 4.20078,0.2 6.30078,0 4.4,-0.5 9,-0.80039 13,-2.40039 5.4,-2.2 10.69961,-4.80039 14.59961,-9.40039 2.9,-3.3 5.80039,-6.59883 8.90039,-9.79883 0.8,-0.8 0.49922,-1.7 0.69922,-2.5 0.21928,-0.76748 -0.35608,-0.80961 -0.85352,-0.74414 -0.75296,1.30496 -11.71774,10.27169 -19.14648,13.94336 l -4,1.80078 c 0.1,-0.1 -2.09961,0.40039 -2.59961,0.40039 -0.6,0 -4.39961,0.19883 -4.59961,-0.20117 -17.1,-36.2 -6.90117,-119.99922 -6.70117,-120.69922 0.1,-0.4 0.20117,-0.69961 0.20117,-1.09961 9.7,-44.8 30.89844,-75.80078 36.39844,-82.80078 4,-5.00001 7.9,-10.0996 12,-15.099607 5.5,-6.899997 11.90077,-12.900781 18.30078,-18.800781 8.5,-7.9 18.00077,-14.700391 27.80078,-20.900391 6.5,-4.1 13.29883,-7.899219 20.29883,-11.199219 4.7,-2.2 9.6,-4.299609 14.5,-6.099609 4.8,-1.7 9.6,-3.700781 14.5,-4.800781 5,-1.1 10.00117,-2.800391 15.20117,-3.400391 4.2,-0.5 8.39922,-1.399609 12.69922,-2.099609 3.7,-0.6 7.59961,-3.91e-4 11.09961,-0.900391 4.9,-1.3 9.79961,-0.598828 14.59961,-0.798828 4.9,-0.2 9.70156,0.899219 14.60156,1.199219 4.3,0.2 8.89961,0.90039 13.09961,1.90039 4.5,1.100001 9.3,1.29961 13.5,3.59961 7.9,1.1 15.09883,4.499609 22.29883,7.599609 7.2,3.1 14.50078,6.5 20.80078,11.5 0.4,0.3 1.09961,0.401172 2.09961,0.701172 -3.2,7.9 -7.5,15.100391 -10.5,22.900391 -3,7.6 -5.6,15.299218 -8,23.699216 1,-0.4 1.80117,-0.40039 2.20117,-0.90039 0.7,-0.800001 1.39883,-1.699217 1.79883,-2.699217 0.5,-1.3 0.49961,-2.8 1.09961,-4 3.6,-7.3 6.90156,-14.900391 11.10156,-21.900391 5.1,-8.6 10.59922,-17.000781 16.19922,-25.300781 2.7,-4 6.19961,-7.398828 9.09961,-11.298828 4.2,-5.7 8.70039,-11.001172 13.90039,-15.701172 2.9,-2.7 6.2,-5.098828 9.5,-7.298828 1.2,-0.7875 2.51328,-1.167187 3.875,-1.160156 z m 12.92578,65.060547 c 0.6,1.3 1.19844,2.1 1.39844,3 0.9,6.3 2.40078,12.499222 2.80078,18.699218 0.4,6.000008 1.09961,11.999598 1.09961,18.099608 0,6.5 -0.60039,12.99961 -0.90039,19.59961 0,0.3 0.1,0.8 0,1 -1.6,1.7 -0.7,3.70156 -1,5.60156 -0.3,1.9 -0.79844,3.69961 -0.89844,5.59961 -0.1,1.6 -0.3,3.09961 -1,4.59961 -0.6,1.4 -0.60039,3.09961 -0.90039,4.59961 -0.9,3.8 -2.3,7.50117 -3,11.20117 -1.3,6.4 -4.00117,12.29844 -6.20117,18.39844 -0.5,1.3 -1.5,2.10117 0,3.20117 0.1,0.1 -0.3,0.90039 -0.5,1.40039 0.5,-0.2 1.4,-0.30156 1.5,-0.60156 3.1,-7 7.20039,-13.59961 9.40039,-21.09961 1.4,-4.7 3.29961,-9.29961 4.59961,-14.09961 0.5,-1.8 0.70039,-3.79961 0.90039,-5.59961 0.2,-1.9 1.40117,-3.59961 1.20117,-5.59961 -0.2,-2 0.59844,-3.70156 0.89844,-5.60156 0.4,-2.4 0.002,-5 0.10156,-7.5 0.2,-2.4 0.79844,-4.69961 0.89844,-7.09961 0.1,-3.7 -0.39883,-7.39961 -0.79883,-11.09961 -0.5,-5.80001 -1.09961,-11.39922 -2.09961,-17.199216 -1,-5.9 -2.70156,-11.500781 -4.10156,-17.300782 -0.3,-1.299999 -0.99844,-2.199218 -3.39844,-2.199218 z M 556.67339,341.16406 c -0.7,0.5 -1.5,0.80039 -2,1.40039 -0.9,1.1 -2.19883,2.2 -2.29883,3.5 -0.2,2.2 -2.00078,2.5 -3.30078,3 -1.4,0.5 -3.39961,0.6 -4.59961,0 -1.9,-1 -3.40078,-0.19961 -5.30078,-0.59961 2.2,5.1 6.70117,7.19961 11.20117,6.09961 6.6,-1.6 7.99883,-6.50039 6.29883,-13.40039 z"
       id="rect4183"
       inkscape:connector-curvature="0"
       sodipodi:nodetypes="ccccccscccsscccccsscccccsccccccccccccccccccssccccsccsccccccsccccscccccccccccccccccscccccccccscccscccscccccccccccsccccccccccsccccccccccccccscccccccccccccccscscccccccccccccccccccccccccccccccccccccccccscccccccccccscccccccccccscccccccccccccscccccsccccccccccccccscccccsccccccscccsccccccsccccccccccccccccccccccccccccccccccccccccccccscccccccccccccccccscccccccccccccccccsccscccccccccccsccccccccccccccc" /></g><g
     inkscape:groupmode="layer"
     id="layer1"
     inkscape:label="Layer 1"
     style="display:inline"
     sodipodi:insensitive="true"><path
       d="m 832.90464,1098.4219 c -0.3,-0.3 -0.5,-0.9 -0.8,-1 -2.6,-0.1 -5.1,-0.5 -7.6,-0.9 -5.6,-0.8 -11,-2.2 -16.4,-4 -4.3,-1.5 -8.1,-3.5 -11.2,-6.7 -3.7,-3.9 -6.3,-8.3 -6.1,-14 0,-0.9 -0.4,-1.8 -0.7,-2.7 -0.1,-0.3 -0.3,-0.7 -0.2,-0.9 1.6,-3 0.3,-6.5 1.3,-9.5 0.4,-1.3 0.4,-2.5 0.7,-3.7 0.2,-1.1 0.6,-2.1 1.1,-3.5 -1,-0.1 -1.9,-0.2 -2.8,-0.2 -4.8,0 -9.7,0.1 -14.5,0 -3.3,-0.1 -6.3,1.8 -9.6,1 -5.8,-1.4 -11.8,-0.3 -17.6,-1.2 -6.6,-1 -13.4,-1.6 -19.5,-4.8 -2.5,-1.3 -5,-2.4 -7.4,-3.8 -5.7,-3.2 -8.7,-8.5 -11.2,-14.2 -0.4,-1 -0.2,-2.2 -0.6,-3.3 -2.2,-5.6 -0.4,-11.4 -1,-17.1 1.8,-2.1 0.8,-4.9 1.9,-7.2 1,-2.00002 1.3,-4.40002 2.1,-6.60002 0.9,-2.8 1.7,-5.7 3.1,-8.2 2.8,-5.2 4.6,-10.8 6.7,-16.2 1.1,-2.8 2.6,-5.6 3.2,-8.7 1.5,-6.8 4.2,-13.3 5.9,-20 1.4,-5.3 2.7,-10.6 4,-15.8 0.7,-2.7 1.2,-5.5 2,-8.2 0.8,-2.7 0.8,-5.5 1.8,-8.2 0.9,-2.5 0.8,-5.3 1.1,-8 0.3,-1.9 0.6,-3.7 1,-5.6 1,-4.5 1.6,-9.1 2.2,-13.6 0.3,-2.3 0.2,-4.9 0.9,-7.1 0.8,-2.3 0.3,-4.6 1,-6.6 1,-2.9 0.2,-6 1.1,-8.6 1,-2.8 0.2,-5.6 0.9,-8.1 1,-3.4 0.3,-6.9 1.1,-10.1 0.9,-3.7 0.1,-7.6 1,-11.1 1.1,-4.4 0.1,-8.9 1,-13.1 1.1,-5.5 0.1,-11.2 1.1,-16.6 1.2,-6.3 0,-12.5 0.9,-18.6 1.6,-10.7 -0.1,-21.5 1.1,-32.1 0.9,-7.8 0.5,-15.4 0.7,-23.1 0.2,-7.7 0,-15.3 0,-23 0,-7.8 0,-15.7 0,-23.5 0,-0.1 -0.1,-0.3 -0.2,-0.4 -6.6,-4.8 -12.5,-10.4 -18.3,-16.2 -6.9,-6.9 -12.9,-14.4 -18.3,-22.4 -4.8,-7.2 -9.1,-14.8 -12.7,-22.7 -1.5,-3.2 -2.6,-6.6 -3.9,-9.9 -1.3,-3.1 -2.5,-6.4 -3.3,-9.6 -0.7,-2.7 -2,-5.3 -2.2,-8.1 -0.2,-2.9 -1.3,-5.5 -2,-8.2 -0.7,-2.9 -0.8,-6 -1.1,-9.1 -0.1,-2.1 -1.5,-3.8 -1.1,-6.1 0.3,-2 -0.5,-4.1 -0.7,-6.1 -0.6,-4.6 -0.1,-9.3 -0.2,-14 0,-1.9 0.6,-3.9 -0.9,-5.6 -0.4,-0.5 -0.3,-1.7 0,-2.4 1.9,-6.1 0.5,-12.4 1,-18.6 0.3,-4.4 1.5,-8.7 1,-13.1 1.6,-2.5 0.8,-5.4 1,-8.1 0.2,-1.7 0.9,-3.4 0.9,-5.1 0.1,-1.9 0.5,-3.7 1,-5.6 0.5,-1.6 0.4,-3.4 0.8,-5.1 0.6,-2.2 0.6,-4.7 1.2,-7 0.6,-2.3 0.1,-5.1 1.2,-7 1.3,-2.2 -0.2,-5 1.8,-6.8 -0.6,-4.3 1.7,-8 2.1,-12.2 0.5,-4.4 2,-8.8 3.2,-13.1 0.9,-3.3 1.8,-6.6 2.7,-9.9 0.3,-1.3 0.6,-2.7 1,-4.4 -2.4,0.4 -4.4,-0.1 -6.7,0.9 -2.2,0.9 -5,0.4 -7.5,1 -4.1,0.9 -8.4,0.5 -12.5,1.2 -6.9,1.3 -13.8,0.1 -20.6,1.1 -4.3,0.6 -8.4,0.6 -12.6,0.7 -2.2,0 -4.4,-0.7 -6.6,-0.9 -2.2,-0.2 -4.3,0 -6.5,0 -2.3,0 -4.8,0.5 -7,-0.1 -3.5,-1 -7.1,-0.4 -10.6,-1 -4.4,-0.8 -8.9,-1.1 -13.2,-2 -4,-0.9 -8.1,-1.3 -12,-2.3 -3.8,-0.9 -7.6,-1.7 -11.4,-2.8 -6.1,-1.7 -11.9,-4.2 -17.8,-6.4 -4.5,-1.7 -9.1,-3.2 -13.2,-5.5 -6.7,-3.8 -13.3,-7.7 -19.3,-12.7 -2.5,-2.1 -5.1,-4.1 -7.3,-6.5 -4.7,-5.3 -9.3,-10.9 -12.1,-17.5 -2.3,-5.4 -4.2,-10.9 -5.3,-16.9 -1.1,-5.9 -0.9,-11.8 -0.6,-17.6 0.2,-4.9 2.3,-9.6 5.3,-13.8 1.5,-2.1 4,-2.6 6,-3.8 1.8,-0.6 3.8,-0.7 5.8,-1.2 0.2,-3.2 -1.2,-6.1 -2,-9.1 -0.8,-2.9 -1.5,-5.7 -2,-8.7 -0.5,-3.1 -1.3,-6.1 -2,-9.2 -0.7,-3.1 -0.1,-6.7 -1.3,-9.5 -1.3,-3.2 -0.3,-6.3 -1.3,-9.5 -0.9,-2.9 0.1,-6.3 -0.7,-9.3 -0.7,-3.1 -0.6,-6.2 -0.7,-9.5 -0.1,-3.3 0,-6.7 0,-10 0,-3.2 -0.2,-6.3 0,-9.5 0.2,-3.2 -0.5,-6.4 0.5,-9.7 0.9,-3 0.2,-6.5 1,-9.6 0.8,-3.1 0,-6.3 1.3,-9.5 1.1,-2.7 0.3,-6.2 1.3,-9 1,-3 1.1,-6.2 2.1,-9 -3.2,-2.2 -6.8,-2 -10,-3.5 -3.3,-1.6 -6.2,-3.7 -9.1,-5.7 -2.9,-2 -5.5,-4.6 -7.8,-8.3 1.1,0 1.8,-0.2 2.2,0 5.4,3.4 11.4,5.5 17.5,7.3 3,0.9 6.2,1.2 9.4,1.7 1.8,-5.6 3.4,-11.1 5,-16.6 -12.6,-4.9 -20.5,-13.7 -24.7,-26.7 1.1,0.3 2,0.3 2.1,0.6 1.5,3 3.8,5 6.7,6.7 2,1.2 3.8,3 5.5,4.6 3,2.7 6.8,3.9 10.1,5.8 2.3,1.3 3.5,0.6 4.8,-2 1.6,-3.3 3.3,-6.6 4.9,-10 0.6,-1.4 0.1,-2.8 -1.2,-3.4 -4.1,-1.9 -5.8,-5.6 -8.1,-9.1 -2.9,-4.4 -3.3,-5.5 -4.7,-11.1 -0.4,-1.5 -0.9,-3 -1,-4.6 -0.1,-1.4 -0.7,-2.7 -0.9,-4.1 -0.1,-0.8 0,-1.5 0,-2.9 1.1,0.6 1.9,0.9 1.9,1.2 0.8,4.4 3.9,7.8 5.9,11.5 1.7,3.2 4.2,6 6.7,8.7 1.6,1.7 3.7,2.9 5.6,4.3 4.4,-7.6 8.7,-14.8 13.7,-21.6 3.4,-4.6 6.7,-9.30001 10.5,-13.70001 4.2,-4.8 7.9,-9.9 12.5,-14.3 8.3,-7.9 16.9,-15.6 26.2,-22.4 6.9,-5 13.8,-10 21.3,-13.9 7.7,-4.1 15.5,-8.3 23.7,-11.4 8.1,-3.1 16.2,-6.2 24.7,-8.1 3.3,-0.7 6.7,-1.3 9.9,-2.7 1.9,-0.8 4.3,-0.3 6.6,-1 3.4,-1 7.1,-0.5 10.5,-1.2 10,-1.9 20.1,-0.6 30.1,-0.9 2.8,-0.1 5.7,-0.7 8.7,0.7 2.6,1.2 5.8,-0.7 8.5,1.2 4.7,-0.5 9.1,1.6 13.7,2.1 3.8,0.5 7.5,2 11.2,3.1 2.8,0.9 5.6,1.9 8.4,2.7 2.8,0.8 5.2,2.9 8.3,3 5.3,3.5 11.8,4.6 17,8.6 2.9,2.3 6.5,3.6 10,5.4 2.5,-3.8 5.1,-7.7 7.7,-11.5 1.8,-2.7 3.4,-5.6 5.4,-8.3 1.9,-2.6 4.4,-4.8 6.3,-7.4 2.3,-3.2 4.9,-6.1 7.9,-8.7 3.8,-3.2999999 7.6,-6.5999999 12.4,-8.5999999 3.3,-1.4 6.5,-1.6 9.9,-1.5 0.4,0 0.9,0.3 1.3,0.5 4.3,2 8.3,4.4 11.8,7.7 9.4,8.6999999 15.5,19.4999999 20.7,30.8999999 2.4,5.2 4.5,10.5 6,16 1.6,6.2 3.6,12.3 4.7,18.6 0.7,3.9 0.8,8.1 2.8,11.8 0.1,0.3 0,0.7 0,1 0.3,4.4 0.3,8.8 1.1,13.1 1.8,10.00001 0.6,20.10001 0.9,30.10001 0.1,3 0.5,6 -0.8,9.1 -1.1,2.7 0.5,6.1 -1.1,9.1 -0.6,1.2 0,3 -0.1,4.4 -0.1,1.2 -0.7,2.4 -0.9,3.6 -0.4,2.3 0,5.1 -1.2,7 -1.4,2.2 0.2,5 -1.8,6.8 0.4,1.9 0,3.7 0.7,5.7 1.9,5.1 3.1,10.4 4.2,15.8 1.2,5.5 3.1,11 3,16.7 1.6,2.2 0.2,4.9 1.1,7 1.1,2.4 0.2,4.9 0.9,7.1 1.3,4.2 0.3,8.5 1,12.6 1.8,10.2 0.5,20.4 0.9,30.6 0.3,6.7 -1.7,13.3 -1,20.1 -1.6,3.2 -0.7,6.7 -1.1,10.1 -0.2,1.7 -1.1,3.2 -1,5.1 0.1,1.5 0.4,3.1 -0.5,4.8 -0.8,1.4 0.1,3.7 -0.5,5.3 -1.6,4.7 -1.9,9.6 -2.7,14.3 -0.7,4.5 -1.9,9 -2.4,13.6 -0.4,3.6 -1.2,7.2 -2.1,10.6 -0.9,3.4 -0.6,7.2 -2.8,10.3 -0.1,6.7 -2.9,12.9 -4.1,19.3 -0.9,4.4 -2,8.8 -3.3,13.1 -1.3,4.2 -2.5,8.4 -3.3,12.6 -0.9,4.9 -2.3,9.8 -3.3,14.7 -1,5 -2.5,10 -3.6,15 -1,4.4 -1.7,8.9 -2.6,14.1 4.1,-1.6 8,-1.5 11.6,-3 1.8,-0.8 4,-0.5 6,-1 2.9,-0.7 5.8,-1.4 8.8,-1.8 3,-0.4 6,-1 8.9,-1.6 2.5,-0.6 5.2,-0.9 7.7,-1.7 2.5,-0.8 5.5,-0.3 8,-1.2 2.2,-0.8 4.8,-0.1 6.5,-1.1 2.2,-1.2 4.3,-0.1 6.1,-0.9 2.4,-1 4.9,-0.3 7.1,-1.1 2.4,-0.8 4.9,-0.3 7.1,-1 2.7,-0.9 5.5,-0.4 8.1,-0.9 10.2,-2 20.4,-0.4 30.59996,-0.9 2.1,-0.1 4.1,0 6.1,0.9 1.8,0.8 4.3,-0.9 6,1.1 3.9,-0.5 7.5,1 11.2,2 3.7,1 7.5,2 11.1,3.4 3.9,1.5 7.5,3.6 11.3,5.2 5.5,2.3 10.2,6 15.1,9.3 6,4 11.4,8.8 16.1,14.1 5.7,6.4 11,13.3 15.4,20.6 2.1,3.5 4.5,7.1 6.1,10.9 3,7.6 6.9,14.9 8.8,22.8 1.3,5.3 3.5,10.5 3.3,16.2 3.7,13.4 1.4,27.1 2,40.7 -1.6,5.6 -0.4,11.4 -1.2,17.1 -0.4,3.2 -0.5,6.4 -0.9,9.6 -0.4,2.5 -0.5,5.2 -1.1,7.6 -0.6,2.6 0,5.5 -1,7.5 -1.3,2.6 -0.2,5.3 -1.6,7.9 -1.2,2.2 -0.7,5.3 -1.2,8 -0.7,3.2 -2,6.2 -2.6,9.4 -0.6,3.6 -1.4,7.1 -2.4,10.5 -1.2,4.4 -2.3,8.7 -3.4,13.1 -0.9,3.6 -1.9,7.3 -2.6,10.9 -0.6,2.9 -0.9,5.8 -1.9,8.7 -0.7,2 0.1,4.4 -1,6.6 -0.7,1.3 0,3.3 -0.2,4.9 -0.2,1.5 -0.7,3 -1.2,5 4.8,0 9.2,0 13.7,0 3.9,0 9.7,2.6 13,4.8 5.6,3.7 8,9.4 10.9,15 5.1,9.7 9,19.9 12.8,30.2 2.9,7.8 5.6,15.7 8,23.7 2.1,6.8 4.5,13.5 5.9,20.6 0.7,3.8 2.1,7.5 3.1,11.2 1.1,3.9 1.6,7.9 2.8,11.8 0.5,1.8 0.3,4.1 1.4,5.4 1.4,1.8 -0.3,3.9 1.2,5.6 1.3,1.5 0.1,3.6 1.2,5.5 1.2,2.2 0.8,5.3 1.2,8 0.2,1.5 0.7,3.1 1,4.6 0.3,1.4 -0.1,2.7 0.7,4.2 1,1.8 -0.4,4.5 1.3,6.5 -0.8,3.6 1.2,7 1.1,10.6 -0.1,2.2 0.6,4.4 0.9,6.6 0.3,2.2 -0.9,4.6 1,6.6 0.2,0.2 0,0.6 0,1 0.3,5.5 0.2,11.1 1.1,16.6 1,5.7 0,11.5 1.1,17.1 1.2,6.4 0.6,12.8 0.7,19.1 0.2,10.7 0.2,21.3 0,32 -0.1,7.9 -0.8,15.7 -0.9,23.6 -0.2,7.80002 0.3,15.70002 -0.2,23.50002 -0.3,5.5 -1.5,10.9 -2.9,16.3 -1.4,5.1 -3.3,10 -6.1,14.5 -4.3,6.9 -9.4,13.1 -17.1,16.9 -4.2,2.1 -8.5,3.8 -13,4.8 -3.8,0.9 -7.8,1.5 -11.6,2.2 -2.9,0.6 -5.8,0.2 -8.6,0.8 -8.7,1.8 -17.4,0.7 -26.1,0.9 -8.7,0.2 -17.3,0.1 -26,0 -2.7,0 -5.4,-0.7 -8.1,-0.9 -2.7,-0.2 -5.4,0.4 -8,-0.1 -4.4,-0.8 -8.9,-1 -13.2,-2.1 -6.9,-1.7 -14,-2.9 -19.8,-7.7 -4.4,-3.6 -5.9,-5.8 -7.6,-10.8 -2.1,-6.1 0,-11.5 1.5,-17.1 0.2,-0.9 0.3,-1.9 0.8,-2.7 0.5,-0.8 1.3,-1.4 0.4,-2.5 -0.7,-0.9 -1.6,-1.1 -2.6,-1 -0.7,0.1 -1.3,0.1 -2,0 -4,-0.3 -8.19996,-0.2 -12.09996,-1.1 -3.8,-0.9 -7.6,-1.7 -11.4,-2.6 -5.7,-1.3 -10.2,-4.5 -15.6,-7.1 -0.3,0.9 -0.8,2.1 -0.9,3.3 -0.4,3.9 -0.2,7.8 -1.2,11.5 -0.6,2.3 -0.2,4.6 -0.9,6.6 -0.7,2.1 -0.7,4.1 -0.9,6.1 -0.2,1.5 -0.6,3.2 -1.1,4.5 -2.3,6.5 -4.2,13.2 -7.7,19.3 -2.3,4.1 -10.5,12.7 -13.9,14.5 -7.9,4 -10.9,5.5 -22.2,8.1 -2.1,0.5 -4.3,0.3 -6.1,1 -2.1,0.9 -4.2,0.3 -6.1,0.9 -4,1.3 -8.1,0.8 -12.1,1 -0.3,0 -0.5,0.6 -0.8,1 -19.7,0.1 -39.7,0.1 -59.7,0.1 z m -288.3,-955.30002 c -1.9,4 -3.8,7.7 -5.4,11.6 -1.6,3.8 -2.8,7.8 -4.3,11.7 -2.5,6.3 -4,13 -5.9,19.5 -0.4,1.5 -1.6,2.8 -1.1,4.6 -0.3,1 -0.8,2 -1,3 -0.2,1.1 0.4,2.7 -0.1,3.4 -1.7,1.9 0,4.5 -1,6 -1.6,2.2 -0.4,4.4 -0.9,6.5 -0.3,0.4 -0.9,0.8 -1,1.3 -0.3,3.4 0.7,6.9 -1,10.1 0.7,5.1 -1.1,10 -1,15.1 0,4 0.3,8 -0.1,12 -0.4,3.9 1.2,7.6 1.1,11.5 -0.7,5.5 1.2,10.8 1,16.2 0,0.2 0.6,0.5 1,0.8 -0.7,4 1,7.8 1.1,11.8 0,1.3 0.3,3.2 1.9,4.2 0.3,2 0,4.1 0.5,6.2 0.8,3.8 2.5,7.3 2.6,11.3 0,0.8 0.6,1.7 1,2.5 0.4,1.6 0.9,3.3 1.3,4.9 5.3,0.9 10.2,-0.8 14.4,-3.4 5.2,-3.2 10.5,-6.7 14.6,-11.5 0.7,-0.8 1.5,-1.2 2.6,-1 -0.2,1.1 0.3,2.2 -0.7,3.3 -3.1,3.2 -6,6.5 -8.9,9.8 -3.9,4.6 -9.3,7.2 -14.6,9.4 -4,1.7 -8.6,1.9 -13,2.4 -2.1,0.2 -4.3,0 -6.3,0 -4.7,3.8 -5.1,9.1 -5.5,14.4 -0.1,1.2 0.8,2.4 0.9,3.6 0.2,2.6 0.2,5 0.9,7.6 1.2,4.5 2.6,8.9 4.5,13.2 2.7,6.1 7,11.3 11.3,16.3 3.1,3.5 7,6.4 10.5,9.6 0.1,0.1 0.2,0.3 0.4,0.3 1.5,0.8 3.1,1.5 4.4,2.5 2,1.6 3.2,-0.7 4.9,-0.6 2.6,0.3 4.9,-0.9 7.3,-1.6 4.8,-1.5 9.2,-3.7 13.1,-7 6.1,-5 8.2,-7.5 10.8,-15 0.7,-2.1 1.6,-4.2 2.5,-6.3 0.1,5 1.1,10 -0.6,14.9 -1.6,4.7 -3.8,9.2 -7.8,12.2 -4.5,3.4 -9,6.7 -14.7,7.9 -1.3,0.3 -2.4,1 -4.2,1.8 3.5,1.9 6.3,4 9.4,5 7.7,2.4 15.1,5.6 23,7.4 6.2,1.5 12.4,2.9 18.5,4.6 2.7,0.8 5.7,0.9 8.6,1 3.1,0.2 5.9,1.7 9.1,1.1 0.5,-0.1 1.2,-0.2 1.5,0 2.2,1.9 4.8,0.6 7.1,1 2.5,0.4 5.1,0.9 7.6,1 9,0.1 18,-0.2 27,0.1 8.9,0.3 17.7,-0.7 26.6,-1.1 1.4,-0.1 2.7,-0.8 4.1,-0.9 1.5,-0.2 3.2,0.4 4.5,-0.1 4.6,-1.8 9.6,-1.8 14.3,-2.7 5.9,-1.1 11.5,-2.8 17.2,-4.5 1.9,-0.6 3.5,-0.7 5.8,-0.4 -1.1,0.8 -1.7,1.4 -2.5,1.6 -6.1,2.2 -12.1,4.6 -18.5,6 -3,0.6 -3.7,1.7 -4.6,4.5 -1.2,3.6 -1.7,7.3 -2.6,10.9 -1.1,4.4 -2.6,8.7 -3.2,13.2 -0.5,4.1 -1.7,8.1 -2.5,12.1 -0.9,4.6 -1.4,9.3 -2.6,13.9 -0.7,2.6 -1.5,5.3 -1,8.1 -1.9,1.6 -0.2,3.9 -1.1,5.5 -1.1,2 -0.8,4.1 -0.9,6.1 0,0.7 0.3,1.5 -0.1,2 -1.2,1.6 -1.1,3.4 -0.9,5.1 0.3,2 -1,3.7 -1,5.6 0.1,7.7 -1.5,15.3 -1.1,23.1 0.4,8.6 0.1,17.3 0.1,26 0,1 -0.4,2.2 0.1,3 1.2,2 1.2,4.1 0.9,6.1 -0.3,2.2 1,4 1.1,6.1 0.2,3 0.2,6.2 1.1,9.1 1.8,5.9 2.9,12.1 4.9,17.9 1.9,5.4 3.7,10.8 6,16 2.8,6.2 6.1,12.2 9.9,17.9 4.6,6.9 9.2,13.9 15.2,19.7 5.8,5.6 11.1,11.7 17.5,16.7 5.6,4.4 11.3,8.5 17.7,11.7 6.3,3.2 12.6,6.6 19.2,9.2 5,2 10.1,3.7 15.1,5.8 4.2,1.7 8.6,2.5 12.8,4.1 4.2,1.6 8.6,2.5 12.9,3.7 2.6,0.7 5.4,2.4 8.4,0.9 0.4,-3.2 0.6,-6.4 1.2,-9.5 0.5,-2.4 1.5,-4.7 2.6,-8.2 0.6,2.7 1.2,4.2 1.3,5.8 0.4,4.7 0.1,9.4 0.8,14.1 1,6.9 0.2,14 1,21.1 1.2,9.8 -0.2,19.7 1,29.6 1,8.7 0.4,17.6 0.2,26.5 -0.2,8.7 0.3,17.4 -0.7,26.1 -1.2,9.8 0.5,19.7 -1.1,29.6 -0.8,5 0.1,10 -0.9,15.1 -0.9,4.9 -0.3,10 -1.1,15.1 -0.9,5.8 -0.4,11.8 -1.3,17.5 -0.5,3.1 -0.8,6.1 -0.8,9.1 0,0.2 0.1,0.4 0,0.5 -2.2,3.3 -0.5,7.2 -1.8,10.7 -1.3,3.5 -0.5,7.7 -1.3,11.5 -0.6,2.7 -0.8,5.4 -0.9,8.1 -2.4,1.9 0.4,5.3 -2,7.2 0.4,2.8 -0.6,5.4 -1,8.1 -0.5,2.7 -0.6,5.5 -1.3,8 -0.9,3.6 -1.6,7.3 -2.6,10.9 -1.2,4.3 -2,8.8 -3,13.3 -2.3,10 -5.2,19.8 -8.2,29.60002 -2.3,7.4 -5.1,14.5 -8,21.7 -1.7,4.1 -3.4,8.2 -5.1,12.4 -1.5,3.7 -2.7,7.5 -4.1,11.3 -1.5,4 -2.2,8.1 -2.9,12.3 -0.6,3.3 -0.5,6 0.1,9.2 1.1,5.5 4.1,9.1 8.8,11.7 6.2,3.4 13.1,4.4 19.9,4.9 9.5,0.6 19,0.3 28.5,0.1 9.4,-0.2 18.8,1 28.1,-0.9 2.9,-0.6 6,0.1 8.8,-0.7 2.8,-0.8 5.9,0.6 8.4,-1.4 5,0.1 9.5,-1.8 14.3,-3 5.1,-1.3 10.1,-3.5 14.2,-6.6 6.5,-4.8 11.1,-11.3 13.3,-19.4 1.5,-5.8 2.9,-11.5 4,-17.3 0.5,-2.5 0.2,-5.4 1.1,-7.5 1.5,-3.6 0.2,-7.2 1.6,-10.8 1,-2.7 0.5,-6 1,-9 0.7,-3.8 0.3,-7.7 1,-11.60002 0.8,-4.4 0.4,-9 0.9,-13.6 0.9,-8.6 -0.1,-17.4 1.1,-26.1 0.7,-5.6 0.3,-11.3 0.1,-17 -0.2,-5.7 0,-11.4 -0.8,-17.1 -1.1,-8.6 0.4,-17.4 -1.1,-26.1 -0.8,-4.4 0.1,-9 -0.9,-13.6 -0.9,-4 -0.1,-8.4 -1.1,-12.6 -0.7,-2.9 0.2,-6.1 -1,-9.1 -0.6,-1.6 0,-3.6 -0.1,-5.5 -0.2,-1.9 -0.8,-3.7 -0.9,-5.6 -0.2,-2.4 -0.2,-4.7 -0.9,-7.1 -0.7,-2.4 0.5,-5.2 -1.1,-7.5 0.1,-5 -1.1,-9.8 -2,-14.7 -0.5,-3 -0.3,-6.2 -1.2,-9 -0.7,-2.2 -0.2,-4.7 -1.1,-6.5 -0.8,-1.7 -0.2,-3.4 -0.9,-4.6 -1,-1.7 -0.7,-3.4 -1,-5.1 -0.4,-2.2 -0.6,-4.4 -1.2,-6.5 -1,-3.6 -1.9,-7.3 -2.5,-10.9 -0.7,-4 -2.6,-7.9 -2.3,-12.1 -3,-8.4 -4.5,-17.1 -6.8,-25.7 -1.8,-6.7 -3.9,-13.4 -5.9,-20.1 -1.9,-6.5 -3.9,-13 -6.2,-19.4 -2.2,-6.3 -4.5,-12.7 -6.8,-19.3 1,0.2 2.4,0.1 2.7,0.6 2.8,4.5 5.5,9 8.1,13.6 2.2,3.9 4.1,8 6.1,11.8 2.5,0.3 4.5,-0.7 6.4,-0.8 5.6,-0.2 10.9,-2.1 16.1,-3.5 8.4,-2.3 16.6,-5.7 24.3,-10 7.8,-4.3 14.9,-9.6 21.5,-15.6 1.89996,-1.7 3.19996,-4 4.99996,-5.9 5.7,-5.8 9.7,-12.8 13.5,-19.9 1.2,-2.3 1.8,-4.9 3.1,-7.2 1.9,-3.3 2.6,-6.9 4,-10.4 0.4,-0.9 0.9,-1.7 1.7,-3.4 0.6,1.7 1,2.6 1.1,3.4 0,0.5 -0.7,1.1 -0.8,1.6 -1.6,7.1 -3.9,14 -7,20.6 -4.1,8.9 -9,17.3 -15.8,24.4 -1.5,1.5 -1.6,3 -0.6,4.8 1,1.9 1.9,3.9 2.9,5.8 4.5,9.1 9.1,18.2 13.4,27.5 3.5,7.5 6.8,15.2 9.9,22.9 1.4,3.4 2.9,6.8 4.1,10.3 2.1,6 4.2,12 6,18 1.9,6.2 4.6,12.3 5.2,18.9 3.2,6.8 3.6,14.4 6,21.5 -0.7,2.2 0.9,4 1,6.1 0.2,2.2 0.3,4.5 1.1,6.5 0.8,2.1 0.3,4.2 1,6.1 0.9,2.6 0.3,5.3 1.1,7.6 0.6,1.8 1,3.5 0.7,5.1 -0.3,2.1 1,3.7 1.1,5.6 0.1,3.2 0.1,6.4 0.8,9.6 0.8,3.5 0.4,7.3 0.1,11 -0.3,3.8 1.1,7.3 1.1,11.1 0,4.6 -0.4,9.1 -1,13.6 -0.7,5.5 0.5,11.1 -0.9,16.6 -0.8,3.2 0.1,6.7 -1.1,10.1 -0.7,2.1 0.5,4.3 -0.9,6.7 -1,1.7 0.3,4.5 -1.2,6.5 0.4,4.7 -2.1,9 -2,13.7 -2,1.8 0,4.8 -1.9,6.7 -0.3,4.1 -2.1,7.8 -2.9,11.8 -1.1,5.4 -2.9,10.5 -4.5,15.7 -2.7,8.4 -5.6,16.7 -8.6,24.90002 -2.6,7.1 -5.2,14.2 -8,21.2 -2.3,5.7 -4.9,11.3 -6.6,17.3 -1.2,3.9 0,8.7 2.9,10.5 4.4,2.6 9.3,4.3 14.3,5.2 2,0.4 4.1,0.5 6.1,1 2.1,0.5 4.5,-0.3 6.6,1.1 5.1,-0.4 10.1,0.6 15.1,0.9 3.6,0.3 7.3,0.1 11,0.1 6.8,0 13.7,0.1 20.5,0 6.9,-0.2 13.8,0.7 20.6,-0.9 2.6,-0.6 5.4,0.1 8.1,-1 1.5,-0.7 3.3,0.2 5.2,-0.9 1.4,-0.8 3.6,-0.7 5.5,-1.1 9.5,-1.7 16.1,-7.2 20.8,-15.2 2.2,-3.8 3.8,-8 5.3,-12.3 1.6,-4.6 2,-9.3 2.6,-13.9 0.8,-5.9 0.4,-12 0.1,-18 -0.2,-6.10002 0.8,-12.10002 1,-18.10002 0.2,-10.7 0.2,-21.3 0,-32 -0.2,-10.5 1,-21.1 -0.9,-31.6 -0.7,-4.1 0.5,-8.4 -1,-12.6 -0.7,-1.9 -0.4,-4.3 0,-6.4 0.4,-2.4 -1.1,-4.3 -1.1,-6.6 0,-2.6 0.6,-5.2 -1,-7.6 0.1,-6.1 -1.1,-12.1 -2,-18.2 -0.5,-3.2 -0.3,-6.5 -1.2,-9.5 -0.7,-2.3 0,-4.9 -1,-6.5 -1.5,-2.3 -0.2,-4.5 -1.1,-6.6 -0.9,-2.1 -1.4,-4.5 -1.7,-6.8 -0.6,-5.3 -2.8,-10.4 -3,-15.8 -1.9,-2.6 -1.4,-6 -2.7,-8.9 -1.2,-2.8 -1.7,-6 -2.3,-9 -1.2,-5.6 -3.1,-11.1 -4.6,-16.6 -1.2,-4.6 -2.9,-9.1 -4.4,-13.7 -1.6,-4.8 -3.2,-9.7 -5,-14.4 -2.2,-5.6 -3.7,-11.5 -7,-16.6 -0.3,-3.9 -2.9,-6.8 -4.5,-10.1 -1.6,-3.3 -3.3,-6.6 -5.4,-9.8 -2.4,-3.7 -5.5,-4.9 -9.3,-5.3 -1.9,-0.2 -3.9,0.6 -5.6,-1 -0.3,-0.2 -1.2,-0.3 -1.4,0 -1.9,1.8 -4.4,0.4 -6.9,1.3 0,3.2 0,6.4 0,10.7 -1.4,-2.1 -2.2,-3.2 -2.9,-4.4 -2.2,-3.8 -3.1,-8.1 -3.9,-12.4 -0.6,-3.2 -0.1,-6.6 -0.1,-10 0,-3.4 -0.8,-7 0.2,-9.9 1.1,-3.1 -0.4,-6.5 1.8,-9.3 -0.1,-5.9 2,-11.5 3,-17.2 0.6,-3.5 1.6,-7 2.3,-10.5 0.8,-3.5 1.5,-7 2.7,-10.4 1.3,-3.7 1.8,-7.6 2.7,-11.3 1.2,-4.7 2.3,-9.4 3.1,-14.2 0.9,-4.7 1.7,-9.4 2.3,-14.1 0.3,-2.3 0.3,-4.9 1,-7.1 0.7,-2.1 0.7,-4.1 0.9,-6.1 0.2,-1.9 -0.4,-3.7 0.8,-5.7 0.9,-1.6 0.3,-4.2 0.2,-6.4 -0.4,-8 0.9,-16.1 -0.9,-24.1 -0.9,-3.9 -0.2,-8.2 -1.2,-12 -1.3,-5 -2.5,-10 -3.7,-14.9 -2.1,-8.3 -5.4,-16.1 -8.7,-23.9 -1.5,-3.5 -3.5,-6.9 -5.5,-10.2 -2.1,-3.5 -4.5,-6.9 -6.9,-10.2 -4,-5.5 -9,-10.1 -13.8,-14.8 -2.2,-2.1 -4.5,-4.2 -7.1,-5.8 -6.6,-4.3 -13.2,-8.8 -20.8,-11.3 -3.4,-1.1 -6.4,-3.1 -9.9,-3.7 -5.3,-0.9 -10.2,-3.5 -15.7,-3.1 -2,-1.9 -4.6,-0.2 -6.5,-1.1 -2.4,-1 -4.7,-1 -7.09996,-0.9 -9.4,0.4 -18.8,-1.1 -28.1,0.9 -2.5,0.6 -5,-0.4 -7.7,0.8 -2.1,1 -5,0.6 -7.5,1 -4.4,0.6 -8.8,1.1 -13.2,2.1 -1.8,0.4 -3.7,0.1 -5.6,0.9 -1.8,0.7 -4.1,0.7 -6,1 -6,0.7 -11.7,2.9 -17.7,3.2 -1.7,2 -4.2,0.6 -6.4,1.5 -3.1,1.3 -6.6,1.7 -10,2.5 -4.2,1 -8.5,2 -12.8,3 0,3 0,5.6 0,8.3 0,2.6 0.2,5.2 -0.4,7.8 -0.7,-2 -1.3,-3.9 -1.5,-5.9 -0.8,-8.2 1.1,-16.4 1,-24.6 0,-0.3 -0.1,-0.8 0,-1 1.8,-1.4 0.7,-3.4 1,-5.1 0.3,-1.7 0.9,-3.4 0.9,-5.1 0,-2.9 1.8,-5.6 1.1,-8.6 2.2,-1.6 -0.2,-4.6 1.9,-6.2 -0.3,-2.3 0.7,-4.4 1.1,-6.6 0.4,-2.2 0.3,-4.5 1.1,-6.5 0.9,-2 0.4,-4.2 1.1,-6.1 1.3,-3.5 1.5,-7.3 2.7,-10.9 0.9,-2.7 0.9,-5.6 1.5,-8.4 0.6,-2.8 1.3,-5.5 1.8,-8.3 0.5,-3.2 1.5,-6.4 2,-9.7 0.4,-3.2 1.4,-6.4 2,-9.7 0.4,-2 0.1,-4.6 1.1,-5.9 1.5,-2 0,-4.1 1.4,-6 1.1,-1.5 0.3,-3.9 1.2,-6 0.8,-1.8 0.5,-4 1,-6.1 1,-4.1 1.4,-8.4 2,-12.7 0.7,-4.9 1.4,-9.8 2.1,-14.7 0.4,-2.8 0.2,-5.7 0.9,-8.6 0.8,-3.4 0.4,-7 1,-10.6 0.8,-4.9 0.2,-10 1,-15.1 0.9,-5.4 0.4,-11 0.1,-16.5 -0.2,-5.4 0.5,-10.7 -0.8,-16.1 -1,-4.3 0.1,-9 -1.1,-13.6 -0.7,-2.6 -0.5,-5.4 -0.9,-8.1 -0.7,-4.4 -1.4,-8.8 -2.1,-13.2 -0.8,-5.3 -2,-10.4 -3.6,-16.1 -1.3,3.4 -2.3,6.3 -3.5,9.1 -1.2,2.8 -2.5,5.6 -4,8.4 -1.1,2.2 -2.7,4.2 -3.8,6.4 -3.6,7.3 -8.7,13.5 -13.8,19.8 -1.2,1.4 -3.1,2.4 -3.8,4 -1.5,3.8 -5.5,4.9 -7.9,7.6 -0.7,0.8 -2,0.7 -2.9,-0.5 2.4,-2.9 4.8,-5.8 7.1,-8.6 4.8,-5.8 8.7,-12.2 12.1,-19 3.4,-6.8 7,-13.4 9.4,-20.6 1.9,-5.9 3.8,-11.8 5.4,-17.7 1,-3.5 1.7,-7.1 2,-10.7 0.3,-3.2 1.8,-6.3 1.1,-9.6 1.7,-2.2 1.2,-4.7 0.9,-7.1 -0.3,-2.7 1.1,-5 1.1,-7.6 0,-5 0.1,-10 0,-15 -0.2,-5 0.6,-10.1 -0.9,-15.1 -0.8,-2.9 0.5,-6.2 -0.7,-9.2 -1.2,-3.00001 0,-6.30001 -1.3,-9.50001 -0.7,-1.7 -0.8,-4 -1,-6 -0.2,-2.2 -0.7,-4.4 -1.2,-6.6 -0.3,-1.2 -0.9,-2.4 -0.9,-3.6 -0.1,-2.6 -1,-4.9 -1.6,-7.3 -0.6,-2.4 -1.4,-4.7 -2.1,-7.1 -1.2,-4 -2.7,-7.9 -4.2,-11.8 -2.5,-6.7 -5.5,-13.1 -9.1,-19.2 -3.4,-5.6 -7.7,-10.4 -12.5,-14.8 -3.6,-3.3 -7.6,-4.1 -10.8,-2 -3.3,2.2 -6.5,4.6 -9.5,7.3 -5.2,4.7 -9.7,10 -13.9,15.7 -2.9,3.9 -6.4,7.3 -9.1,11.3 -5.6,8.3 -11.1,16.7 -16.2,25.3 -4.1,7 -7.5,14.6 -11.1,21.9 -0.6,1.2 -0.6,2.7 -1.1,4 -0.4,1 -1,2.00001 -1.8,2.70001 -0.4,0.4 -1.2,0.5 -2.2,0.9 2.4,-8.40001 5,-16.10001 8,-23.70001 3,-7.8 7.3,-15 10.5,-22.9 -1,-0.3 -1.6,-0.3 -2.1,-0.7 -6.3,-5 -13.5,-8.4 -20.8,-11.5 -7.2,-3.1 -14.4,-6.5 -22.3,-7.6 -4.2,-2.3 -9,-2.6 -13.5,-3.6 -4.3,-1 -8.8,-1.7 -13.1,-1.9 -4.9,-0.2 -9.7,-1.4 -14.6,-1.2 -4.9,0.2 -9.7,-0.5 -14.6,0.8 -3.5,0.9 -7.3,0.3 -11.1,0.9 -4.2,0.7 -8.4,1.6 -12.7,2.1 -5.2,0.6 -10.1,2.3 -15.2,3.4 -4.9,1.1 -9.7,3.1 -14.5,4.8 -4.9,1.8 -9.8,3.8 -14.5,6.1 -7,3.3 -13.8,7.1 -20.3,11.2 -9.8,6.2 -19.3,13 -27.8,20.9 -6.4,5.9 -12.7,11.9 -18.3,18.8 -4,5.00001 -8,10.00001 -12,15.10001 -5.6,7.2 -9.8,15.2 -14.5,23.1 m 218.2,552.3 c 0,1.7 0,3 0,4.3 0,9.3 0.2,18.7 0,28 -0.2,9.2 0.9,18.4 -0.8,27.6 -0.7,3.7 -0.1,7.6 -0.1,11.5 0,3.9 0.1,7.7 0,11.5 -0.2,3.7 -0.7,7.4 -1,11.1 -0.5,6 0.7,12.1 -0.9,18.1 -0.7,2.8 0,6 -0.2,9 -0.2,3 -0.7,6 -0.9,9.1 -0.4,6.5 -0.7,13.1 -1,19.6 0,0.2 0.1,0.4 0,0.5 -1.4,2 -1.2,4.4 -0.9,6.6 0.4,2.6 -1,4.7 -1.1,7.1 -0.2,4.4 -0.6,8.7 -1,13.1 0,0.2 0.1,0.4 0,0.5 -1.3,1.5 -1.2,3.4 -0.9,5.1 0.3,2 -0.8,3.7 -1,5.6 -0.2,2.1 0,4 -0.9,6.1 -0.8,1.8 -0.1,4 -1,6.1 -0.7,1.8 -0.4,4 -1,6.1 -0.6,2 -0.8,4.4 -1,6.5 -0.4,3.5 -1.4,6.8 -2,10.2 -0.5,3.1 -1.4,6.1 -2,9.2 -0.6,3.1 -1.4,6.1 -2.1,9.2 -2.2,10 -4.9,19.9 -8.1,29.7 -3.7,11.3 -7.7,22.4 -12.5,33.3 -3.4,7.70002 -6,15.60002 -5.5,24.20002 0.1,1.5 -0.1,3 0,4.5 0,0.8 0.4,1.5 0.6,2.2 1.9,6.2 6.3,9.7 12.3,12 5,2 10.3,2.5 15.4,3.8 2.5,0.6 5.3,0 8,0.1 2.7,0.2 5.4,0.6 8.1,1 4.8,0.7 9.3,-1.1 14.1,-1 5.2,0.1 10.3,0 15.5,0.1 1.8,0 2.6,-0.7 3.1,-2.3 1.2,-3.3 2.4,-6.7 4,-9.8 3.3,-6.6 5.4,-13.8 7.9,-20.7 2.1,-5.8 3.6,-11.90002 5.4,-17.80002 1.8,-6 3.2,-12 4.8,-18 0.9,-3.3 1.4,-6.8 2.3,-10.1 1.1,-4.1 1.9,-8.2 2.7,-12.4 0.2,-1.1 0.8,-2 0.9,-3.1 0.2,-1.3 -0.4,-2.8 0.1,-4 1.8,-4.3 1.4,-9 2.9,-13.3 0.7,-1.9 -0.4,-4 0.9,-6.2 1,-1.7 0.4,-4.3 1,-6.5 0.6,-2.4 0.5,-5 1.1,-7.6 0.5,-2.6 0.4,-5.4 1,-8.1 0.9,-4.3 0.8,-8.7 1.1,-13.1 0,-0.3 -0.1,-0.8 0,-1 1.4,-2.1 1.1,-4.4 0.9,-6.6 -0.2,-2.3 0.8,-4.4 1,-6.6 0.3,-3.5 0.1,-7 0.9,-10.6 0.9,-4 0.2,-8.3 1,-12.6 0.9,-4.4 0.1,-9 0.9,-13.6 1,-5.6 0.2,-11.3 1.1,-17.1 1,-6.3 -0.3,-12.7 1,-19.1 0.9,-4.7 0,-9.6 0.2,-14.5 0.2,-4.9 1,-9.7 0.9,-14.6 -0.4,-14.6 1.8,-29 1.1,-43.6 0,-0.7 -0.2,-1.5 0.1,-2 1.9,-3.1 0.5,-6.3 0.8,-9.1 -27.1,-5.8 -52.7,-14.1 -77.2,-27.6 z m 193.9,23.7 c 2.3,5.4 4.3,10.4 6.5,15.3 3.1,6.9 5.5,14.1 8.5,21 2,4.8 3.7,9.9 5,14.9 1.3,5.3 3.9,10.3 4.2,15.8 2,1.2 0.5,3.6 1.8,5.3 1.1,1.4 0.7,3.9 1.2,6 0.4,1.8 0.8,3.7 1.6,5.3 0.9,1.9 0.3,4 1.2,6 1.1,2.4 0.2,5.6 1.3,7.9 1.4,2.7 -0.2,5.9 1.8,8.3 0.6,4.7 1.5,9.5 1.8,14.2 0.3,5 1.3,10 1.2,15.1 -0.4,15.5 0.9,31.1 -1,46.6 -0.4,3.7 -0.2,7.5 -1.2,11 -0.7,2.5 -0.2,4.9 -0.9,7.1 -0.9,3 -1.4,6.1 -1.9,9.2 -0.6,3.1 -1.2,6.1 -2,9.2 -1.1,4.5 -2.4,9 -3.5,13.5 -1,3.8 -2.4,7.4 -3.4,11.1 -1.6,6.3 -3.7,12.5 -5.5,18.7 -1.5,5.4 -3.2,10.7 -4.7,16.1 -0.6,2.3 -0.1,4.7 -1,6.5 -1.5,2.8 -0.6,5.50002 -0.7,8.20002 -0.1,1.4 0.6,3.2 1.5,4.3 2.5,3.2 5.6,5.8 9.5,7 3.7,1.1 7.4,2.3 11.3,3 4,0.7 7.99996,0.8 12.09996,1.1 1,0.1 2.3,-0.4 2.9,0.1 2.8,2 5.7,0.4 8.1,1 1.8,-5 3.3,-9.5 5,-14 2.2,-5.9 4.4,-11.90002 6.5,-17.80002 2,-5.4 3.7,-10.8 5.1,-16.4 1,-4.2 2.7,-8.2 3.9,-12.4 1.2,-4 1.6,-8.2 3,-12.3 0.7,-2.1 0.5,-4.4 1.1,-6.5 0.7,-2.4 0.3,-5 1.2,-7 0.9,-2 0,-4 0.9,-5.6 1.1,-2.1 0.8,-4.1 0.9,-6.1 0,-0.7 -0.3,-1.5 0.1,-2 1.4,-1.9 0.7,-4.1 1,-6.1 0.2,-2 0.8,-4 0.9,-6.1 0.3,-5.4 0.4,-10.7 0.8,-16.1 0.5,-6.6 1.1,-13.4 -0.6,-20.1 -0.7,-2.8 -0.4,-6 0,-9 0.3,-3 -1,-5.7 -1.1,-8.6 -0.2,-4.5 -0.6,-9.1 -1,-13.6 0,-0.3 0.1,-0.8 -0.1,-0.9 -1.5,-1.1 -0.7,-2.8 -0.9,-4.1 -0.3,-1.4 -0.8,-2.7 -1,-4.1 -0.4,-3 -0.3,-6.2 -1.1,-9.1 -1.5,-5.4 -2.7,-10.9 -3.8,-16.4 -1.9,-9.3 -5.2,-18.2 -7.4,-27.5 -1.1,-4.8 -3.1,-9.3 -4.9,-14 -1.7,-4.6 -3,-9.5 -5.1,-13.9 -3.3,-7.1 -6,-14.5 -9.2,-21.7 -3.2,-7 -6.7,-13.8 -9.6,-21 -1.99996,-4.8 -4.89996,-9.3 -7.79996,-14.5 -3.4,2.5 -6.7,5 -10.1,7.2 -3.5,2.2 -7.3,4.2 -11,6 -3.9,1.7 -7.6,3.2 -11.4,4.9 z m -26.3,6.8 c 1.8,3.8 3.2,7.2 4.4,10.7 3,8.8 6,17.6 8.2,26.6 1,3.8 2.3,7.7 3.2,11.6 1,3.9 2.7,7.8 2.5,12 2.4,5 2.5,10.6 3.8,15.9 1.5,5.6 1.9,11.5 3,17.2 0.9,4.3 1.1,8.8 2,13.2 0.5,2.3 0.2,4.7 0.9,7.1 0.7,2.2 0.2,4.7 1,7.1 0.6,1.8 -0.6,4.4 0.3,5.8 1.2,2 0.7,3.8 0.7,5.7 0,2 0.8,3.7 1,5.6 0.3,3.4 0.3,6.7 0.9,10.1 0.7,4.1 0.3,8.4 1,12.6 0.8,4.4 -0.2,9 1,13.6 0.7,2.8 0,6 0.2,9 0.2,3 -0.2,6 0.8,9.1 0.9,2.7 0.2,5.9 0.2,8.9 0,10.5 0,21 0,31.5 0,1.1 0,2.2 0,3.4 2.2,-4.5 3.8,-9.1 4.9,-13.8 1.5,-6.2 2.9,-12.5 4.5,-18.7 1.5,-6.1 2.1,-12.4 3.5,-18.5 0.5,-2.3 0.7,-4.7 1.1,-7.1 0.3,-2.4 0.3,-4.7 0.9,-7.1 0.7,-2.7 0,-5.6 0.2,-8.5 0.2,-2.9 1,-5.7 0.9,-8.6 -0.3,-7.5 0.8,-15.1 -0.8,-22.6 -1,-4.7 0.7,-9.7 -1,-14.6 -0.9,-2.5 0.4,-5.3 -0.9,-8.1 -1,-2.3 -0.5,-5.3 -1.1,-8 -0.8,-3.7 -1.5,-7.4 -2,-11.2 -0.9,-6.4 -2.8,-12.5 -4.1,-18.8 -1.4,-6.9 -3.4,-13.6 -5.6,-20.2 -3.1,-9.7 -6.2,-19.4 -10.3,-28.7 -1.9,-4.2 -3.3,-8.6 -5.1,-12.9 -1.8,-4.2 -3.6,-8.5 -5.5,-12.9 -4.8,1.3 -9.6,2.4 -14.7,3.6 z"
       id="path3"
       inkscape:connector-curvature="0"
       style="fill:#070707" /><path
       d="m 872.50464,76.42187 c 2.4,0 3.1,0.9 3.4,2.3 1.4,5.8 3.1,11.4 4.1,17.3 1,5.70001 1.6,11.40001 2.1,17.20001 0.3,3.7 0.9,7.4 0.8,11.1 -0.1,2.4 -0.8,4.7 -0.9,7.1 -0.2,2.5 0.3,5 -0.1,7.5 -0.3,1.9 -1.1,3.6 -0.9,5.6 0.2,1.9 -1,3.6 -1.2,5.6 -0.2,1.8 -0.4,3.8 -0.9,5.6 -1.3,4.7 -3.2,9.3 -4.6,14.1 -2.2,7.5 -6.3,14.1 -9.4,21.1 -0.2,0.4 -1,0.4 -1.5,0.6 0.2,-0.5 0.6,-1.3 0.5,-1.4 -1.5,-1.1 -0.5,-2 0,-3.2 2.2,-6.1 4.9,-12 6.2,-18.4 0.8,-3.8 2.2,-7.4 3,-11.2 0.3,-1.5 0.3,-3.2 0.9,-4.6 0.6,-1.5 0.8,-3 1,-4.6 0.1,-1.9 0.7,-3.7 0.9,-5.6 0.3,-1.9 -0.6,-3.9 1,-5.6 0.2,-0.2 0,-0.6 0,-1 0.3,-6.5 0.9,-13 0.9,-19.6 0,-6 -0.7,-12.1 -1.1,-18.10001 -0.5,-6.3 -1.9,-12.5 -2.8,-18.7 -0.2,-1 -0.8,-1.8 -1.4,-3.1 z"
       id="path13"
       inkscape:connector-curvature="0"
       style="fill:#101010" /><path
       d="m 555.30464,341.12188 c 1.7,6.9 0.3,11.8 -6.3,13.3 -4.6,1.1 -9,-1 -11.2,-6.1 1.9,0.4 3.5,-0.4 5.3,0.6 1.2,0.6 3.2,0.5 4.6,0 1.3,-0.5 3.1,-0.7 3.3,-3 0.1,-1.2 1.4,-2.4 2.3,-3.5 0.5,-0.5 1.3,-0.8 2,-1.3 z"
       id="path15"
       inkscape:connector-curvature="0"
       style="fill:#101010" /></g></svg>